<?xml version="1.0" encoding="utf-8"?>
<!-- Generator: Adobe Illustrator 15.1.0, SVG Export Plug-In . SVG Version: 6.00 Build 0)  -->
<!DOCTYPE svg PUBLIC "-//W3C//DTD SVG 1.0//EN" "http://www.w3.org/TR/2001/REC-SVG-20010904/DTD/svg10.dtd">
<svg version="1.0" id="Layer_1" xmlns="http://www.w3.org/2000/svg" xmlns:xlink="http://www.w3.org/1999/xlink" x="0px" y="0px"
	 width="100px" height="100px" viewBox="0 0 100 100" enable-background="new 0 0 100 100" xml:space="preserve">
<g>
	<path fill="#3D5A98" d="M94.481,100c3.047,0,5.519-2.471,5.519-5.519V5.52C100,2.471,97.528,0,94.481,0H5.519
		C2.47,0,0,2.471,0,5.52v88.962C0,97.529,2.47,100,5.519,100H94.481z"/>
	<path fill="#FFFFFF" d="M68.999,100V61.275h12.999l1.946-15.092H68.999v-9.635c0-4.37,1.213-7.348,7.479-7.348l7.992-0.003V15.698
		c-1.382-0.183-6.126-0.594-11.646-0.594c-11.523,0-19.411,7.033-19.411,19.949v11.13H40.381v15.092h13.032V100H68.999z"/>
</g>
</svg>
