<?xml version="1.0" encoding="utf-8"?>
<!-- Generator: Adobe Illustrator 15.1.0, SVG Export Plug-In . SVG Version: 6.00 Build 0)  -->
<!DOCTYPE svg PUBLIC "-//W3C//DTD SVG 1.1//EN" "http://www.w3.org/Graphics/SVG/1.1/DTD/svg11.dtd">
<svg version="1.1" id="Ebene_1" xmlns="http://www.w3.org/2000/svg" xmlns:xlink="http://www.w3.org/1999/xlink" x="0px" y="0px"
	 width="56.375px" height="64px" viewBox="3.75 0 56.375 64" enable-background="new 3.75 0 56.375 64" xml:space="preserve">
<title>HTML5 Logo Badge</title>
<path fill="#E34F26" d="M8.875,57.5L3.75,0h56.375L55,57.5L31.875,64"/>
<path fill="#EF652A" d="M32,59l18.625-5.125L55,4.625H32"/>
<path fill="#EBEBEB" d="M32,26h-9.375L22,18.75h10v-7h-0.125H14.25l0.125,1.875l1.75,19.5H32V26z M32,44.375h-0.125L24,42.25
	l-0.5-5.625h-3.75H16.5l0.875,11.125l14.5,4H32V44.375z"/>
<path fill="#FFFFFF" d="M31.875,26v7.125h8.75L39.75,42.25l-7.875,2.125v7.375l14.5-4L46.5,46.5l1.625-18.625L48.375,26h-2H31.875z
	 M31.875,11.75v4.375v2.625l0,0H49l0,0l0,0l0.125-1.5l0.375-3.625l0.125-1.875H31.875z"/>
</svg>
