<?xml version="1.0" encoding="utf-8"?>
<!-- Generator: Adobe Illustrator 15.1.0, SVG Export Plug-In . SVG Version: 6.00 Build 0)  -->
<!DOCTYPE svg PUBLIC "-//W3C//DTD SVG 1.0//EN" "http://www.w3.org/TR/2001/REC-SVG-20010904/DTD/svg10.dtd">
<svg version="1.0" id="Ebene_1" xmlns="http://www.w3.org/2000/svg" xmlns:xlink="http://www.w3.org/1999/xlink" x="0px" y="0px"
	 width="100px" height="86.071px" viewBox="0 0 100 86.071" enable-background="new 0 0 100 86.071" xml:space="preserve">
<g>
	<g>
		<path fill="#32FC8E" d="M67.588,0.098c-0.508-0.253-0.923,0.003-0.923,0.571v69.804L97.23,85.755
			c1.523,0.762,2.77-0.008,2.77-1.711V16.85c0-0.335-0.189-0.642-0.489-0.791L67.588,0.098z"/>
		<path fill="#0AE370" d="M33.334,53.827l32.793-53.29c0.298-0.483,0.957-0.671,1.464-0.418l31.677,15.839
			c0.395,0.198,0.536,0.691,0.305,1.066l-32.905,53.47L33.334,53.827z"/>
	</g>
	<g>
		<path fill="#14C867" d="M3.692,1.504c-2.031-1.015-2.719-0.264-1.529,1.67l31.171,50.653l33.334,16.667L33.55,16.676
			c-0.141-0.229-0.343-0.414-0.583-0.534L3.692,1.504z"/>
		<path fill="#01AB6C" d="M33.334,84.066c0,1.703-1.246,2.473-2.769,1.711L1.846,71.417C0.831,70.909,0,69.565,0,68.43V1.723
			c0-1.135,0.831-1.648,1.846-1.141l31.077,15.539c0.252,0.125,0.411,0.383,0.411,0.665V84.066z"/>
	</g>
</g>
</svg>
