<?xml version="1.0" encoding="utf-8"?>
<!-- Generator: Adobe Illustrator 15.1.0, SVG Export Plug-In . SVG Version: 6.00 Build 0)  -->
<!DOCTYPE svg PUBLIC "-//W3C//DTD SVG 1.0//EN" "http://www.w3.org/TR/2001/REC-SVG-20010904/DTD/svg10.dtd">
<svg version="1.0" id="Layer_1" xmlns="http://www.w3.org/2000/svg" xmlns:xlink="http://www.w3.org/1999/xlink" x="0px" y="0px"
	 width="100px" height="81.268px" viewBox="0 0 100 81.268" enable-background="new 0 0 100 81.268" xml:space="preserve">
<path fill="#55ACEE" d="M100,9.62c-3.679,1.632-7.633,2.735-11.784,3.23c4.236-2.539,7.489-6.56,9.021-11.35
	c-3.964,2.351-8.354,4.058-13.028,4.979C80.467,2.492,75.135,0,69.234,0C57.903,0,48.717,9.186,48.717,20.516
	c0,1.608,0.182,3.174,0.531,4.676C32.198,24.335,17.081,16.168,6.961,3.755C5.195,6.786,4.184,10.31,4.184,14.07
	c0,7.118,3.622,13.397,9.127,17.076c-3.363-0.106-6.527-1.029-9.293-2.566c-0.001,0.085-0.001,0.171-0.001,0.258
	c0,9.94,7.072,18.233,16.458,20.117c-1.722,0.469-3.534,0.72-5.405,0.72c-1.322,0-2.607-0.129-3.86-0.368
	c2.61,8.151,10.188,14.083,19.165,14.248c-7.021,5.502-15.868,8.782-25.48,8.782c-1.656,0-3.289-0.097-4.894-0.286
	c9.08,5.821,19.863,9.217,31.449,9.217c37.737,0,58.373-31.262,58.373-58.374c0-0.889-0.02-1.774-0.06-2.654
	C93.771,17.348,97.25,13.734,100,9.62z"/>
</svg>
