<?xml version="1.0" encoding="utf-8"?>
<!-- Svg Vector Icons : http://www.onlinewebfonts.com/icon -->
<!DOCTYPE svg PUBLIC "-//W3C//DTD SVG 1.1//EN" "http://www.w3.org/Graphics/SVG/1.1/DTD/svg11.dtd">
<svg version="1.1" xmlns="http://www.w3.org/2000/svg" xmlns:xlink="http://www.w3.org/1999/xlink" x="0px" y="0px" viewBox="0 0 1000 1000" enable-background="new 0 0 1000 1000" xml:space="preserve">
<metadata> Svg Vector Icons : http://www.onlinewebfonts.com/icon </metadata>
<g><g transform="translate(0.000000,626.000000) scale(0.100000,-0.100000)"><path d="M6391.9,6044.2c-231.4-26.1-435.3-180.9-524.2-398.5l-35.2-88.9V4047c0-1422.4,1.5-1514.4,27.6-1594.1c61.3-182.4,185.5-315.7,358.7-386.3l88.9-35.2H7871h1563.4l102.7,49c179.3,84.3,285.1,210,340.3,404.6c23,76.6,24.5,243.7,21.5,1586.4l-4.6,1500.6l-52.1,110.4c-92,196.2-259,321.9-476.7,355.6C9271.9,6053.4,6525.3,6058,6391.9,6044.2z"/><path d="M3847.6,5599.7c-245.2-42.9-415.4-128.7-584-295.8c-144.1-144.1-214.6-260.6-277.4-459.8l-35.3-115V2521.9c0-2086.1,1.5-2213.3,27.6-2306.8c110.4-392.4,403.1-671.3,792.4-757.2c104.2-23,320.3-24.5,2337.4-21.4c2204.1,4.6,2222.5,6.1,2314.4,36.8c392.4,136.4,637.6,412.3,718.9,806.2c19.9,95,24.5,226.8,24.5,671.3v551.8H7776c-1494.4,1.5-1509.7,1.5-1724.3,81.2c-366.3,133.3-652.9,475.1-717.3,853.7c-10.7,69-15.3,564-12.3,1637l4.6,1535.8l-720.4-1.5C4210.8,5607.3,3869,5602.7,3847.6,5599.7z"/><path d="M1387.5,4327.5c-256-19.9-504.3-108.8-712.7-249.8c-98.1-67.4-260.6-228.4-326.5-323.4c-76.6-113.4-176.3-338.7-213.1-482.8L100,3135V399.1v-2735.9l35.2-137.9c44.5-179.3,177.8-449.1,280.5-567.1c210-243.7,472.1-393.9,818.5-470.6c73.6-15.3,620.8-19.9,2804.9-19.9c2570.4,0,2719.1,1.5,2843.2,27.6c536.5,116.5,905.8,462.9,1062.2,999.3c30.7,99.6,32.2,156.3,38.3,761.8l4.6,656H5952c-2207.2,0-2199.5,0-2449.3,84.3c-607,203.9-1002.4,712.7-1065.3,1370.3c-9.2,98.1-15.3,912-15.3,2067.7v1903.7l-485.9-3.1C1668,4333.6,1421.2,4330.6,1387.5,4327.5z"/></g></g>
</svg>