<?xml version="1.0" encoding="utf-8"?>
<!-- Generator: Adobe Illustrator 15.1.0, SVG Export Plug-In . SVG Version: 6.00 Build 0)  -->
<!DOCTYPE svg PUBLIC "-//W3C//DTD SVG 1.1//EN" "http://www.w3.org/Graphics/SVG/1.1/DTD/svg11.dtd">
<svg version="1.1" id="Ebene_2" xmlns="http://www.w3.org/2000/svg" xmlns:xlink="http://www.w3.org/1999/xlink" x="0px" y="0px"
	 width="729.542px" height="300px" viewBox="0 0 729.542 300" enable-background="new 0 0 729.542 300" xml:space="preserve">
<g display="none">
	<g display="inline">
		<path fill="#FF3900" d="M415.343,97.784H238.095v98.172h296.616L415.343,97.784z M316.207,16.252h-78.112v78.204h173.201
			L316.207,16.252z M538.758,199.284H238.095V347.99H719.57L538.758,199.284z M238.095-47.99v60.914h74.065L238.095-47.99z"/>
	</g>
</g>
<g>
	<polygon fill="#FF6819" points="499.056,110.44 364.771,110.44 364.771,184.817 589.49,184.817 	"/>
	<polygon fill="#FFA441" points="423.949,48.671 364.771,48.671 364.771,107.919 495.989,107.919 	"/>
	<polygon fill="#FF3900" points="592.557,187.338 364.771,187.338 364.771,300 729.542,300 	"/>
	<polygon fill="#FFC74E" points="364.771,0 364.771,46.149 420.883,46.149 	"/>
</g>
<g>
	<g>
		<path fill="#FFFFFF" d="M264.04,20.36c-0.178,0-0.316-0.138-0.316-0.315V7.872c0-0.177,0.139-0.315,0.316-0.315h3.211
			c1.103,0,2.088,0.335,2.855,0.985c0.787,0.65,1.3,1.615,1.477,2.758c0.021,0.118,0.414,2.698,0,5.318
			c-0.177,1.143-0.689,2.088-1.496,2.758c-0.769,0.65-1.754,0.984-2.836,0.984H264.04z M265.005,19.08h2.246
			c1.634,0,2.816-1.024,3.072-2.659c0.374-2.423,0-4.905,0-4.924c-0.256-1.655-1.418-2.66-3.072-2.66h-2.246V19.08z"/>
		<path fill="#FFFFFF" d="M280.368,16.066h-5.594c0.021,0.453,0.078,0.926,0.178,1.418c0.334,1.556,1.615,1.733,2.146,1.733
			c0.453,0,1.438-0.138,1.932-1.123c0.078-0.158,0.256-0.295,0.434-0.295h0.689c0.176,0,0.295,0.138,0.235,0.315
			c-0.452,1.477-1.694,2.383-3.29,2.383c-1.732,0-3.033-1.064-3.408-2.758c-0.453-2.147-0.02-4.275,0-4.354v-0.02
			c0.375-1.694,1.676-2.738,3.408-2.738c1.715,0,3.014,1.044,3.389,2.738v0.02c0.02,0.059,0.217,1.044,0.217,2.364
			C280.704,15.928,280.546,16.066,280.368,16.066z M274.813,14.786h4.57c-0.039-0.65-0.137-1.103-0.137-1.142
			c-0.355-1.557-1.615-1.733-2.148-1.733c-0.531,0-1.813,0.177-2.146,1.733C274.952,13.683,274.853,14.136,274.813,14.786z"/>
		<path fill="#FFFFFF" d="M285.017,20.36c-0.177,0-0.373-0.138-0.413-0.295l-2.679-7.623c-0.059-0.158-0.099-0.434-0.099-0.611
			v-0.749c0-0.177,0.138-0.315,0.315-0.315h0.649c0.178,0,0.315,0.138,0.315,0.315v0.847l2.502,7.15h0.375l2.501-7.15v-0.847
			c0-0.177,0.138-0.315,0.315-0.315h0.65c0.176,0,0.314,0.138,0.314,0.315v0.749c0,0.177-0.039,0.453-0.099,0.611l-2.679,7.623
			c-0.059,0.158-0.236,0.295-0.414,0.295H285.017z"/>
		<path fill="#FFFFFF" d="M297.899,16.066h-5.594c0.02,0.453,0.078,0.926,0.178,1.418c0.334,1.556,1.615,1.733,2.146,1.733
			c0.453,0,1.438-0.138,1.931-1.123c0.079-0.158,0.256-0.295,0.434-0.295h0.688c0.178,0,0.297,0.138,0.236,0.315
			c-0.452,1.477-1.693,2.383-3.289,2.383c-1.732,0-3.033-1.064-3.407-2.758c-0.454-2.147-0.021-4.275,0-4.354v-0.02
			c0.374-1.694,1.675-2.738,3.407-2.738c1.714,0,3.014,1.044,3.389,2.738v0.02c0.02,0.059,0.217,1.044,0.217,2.364
			C298.235,15.928,298.077,16.066,297.899,16.066z M292.345,14.786h4.57c-0.039-0.65-0.138-1.103-0.138-1.142
			c-0.354-1.557-1.616-1.733-2.147-1.733s-1.813,0.177-2.146,1.733C292.483,13.683,292.384,14.136,292.345,14.786z"/>
		<path fill="#FFFFFF" d="M301.366,17.938c0,0.532,0.395,1.143,0.926,1.143h0.354c0.178,0,0.315,0.138,0.315,0.315v0.65
			c0,0.177-0.138,0.315-0.315,0.315h-0.354c-1.32,0-2.206-1.261-2.206-2.423V7.872c0-0.177,0.138-0.315,0.315-0.315h0.649
			c0.178,0,0.315,0.138,0.315,0.315V17.938z"/>
		<path fill="#FFFFFF" d="M311.097,17.741c-0.354,1.694-1.654,2.758-3.387,2.758c-1.734,0-3.035-1.064-3.408-2.758
			c-0.453-2.147-0.02-4.275,0-4.354v-0.02c0.373-1.694,1.674-2.738,3.408-2.738c1.713,0,3.013,1.044,3.387,2.738v0.02
			C311.117,13.466,311.551,15.594,311.097,17.741z M309.856,13.644c-0.355-1.557-1.615-1.733-2.146-1.733
			c-0.533,0-1.813,0.177-2.147,1.733c-0.021,0.059-0.395,1.97,0,3.841c0.335,1.556,1.614,1.733,2.147,1.733
			c0.531,0,1.812-0.178,2.146-1.733C310.25,15.613,309.856,13.722,309.856,13.644z"/>
		<path fill="#FFFFFF" d="M316.81,20.499c-0.926,0-1.615-0.335-2.188-0.749v3.486c0,0.178-0.137,0.335-0.314,0.335h-0.65
			c-0.177,0-0.314-0.158-0.314-0.335V11.083c0-0.177,0.138-0.315,0.314-0.315h0.65c0.178,0,0.314,0.138,0.314,0.296v0.315
			c0.572-0.434,1.262-0.749,2.188-0.749c1.733,0,3.033,1.064,3.388,2.758c0.454,2.147,0.021,4.255,0,4.354
			C319.843,19.435,318.543,20.499,316.81,20.499z M318.937,17.485c0.02-0.02,0.395-1.95,0-3.841
			c-0.314-1.557-1.595-1.733-2.127-1.733c-0.827,0-1.398,0.414-1.95,0.945c-0.138,0.138-0.237,0.375-0.237,0.552v4.294
			c0,0.177,0.1,0.434,0.237,0.552c0.552,0.551,1.123,0.965,1.95,0.965C317.342,19.218,318.622,19.041,318.937,17.485z"/>
		<path fill="#FFFFFF" d="M327.249,20.36c-0.177,0-0.334-0.138-0.334-0.315v-6.658c0-0.63-0.197-1.044-0.65-1.28
			c-0.315-0.177-0.67-0.197-0.67-0.197h-0.139c-0.609,0-1.083,0.453-1.535,1.004c-0.119,0.138-0.198,0.394-0.198,0.571v6.56
			c0,0.177-0.138,0.315-0.315,0.315h-0.648c-0.178,0-0.316-0.138-0.316-0.315v-8.963c0-0.177,0.139-0.315,0.316-0.315h0.648
			c0.178,0,0.315,0.138,0.315,0.315v0.217c0.474-0.394,1.024-0.67,1.733-0.67h0.139c0.059,0,0.67,0.02,1.279,0.335
			c0.355,0.197,0.65,0.453,0.867,0.768c0.533-0.591,1.241-1.103,2.188-1.103h0.138c0.06,0,0.669,0.02,1.3,0.335
			c0.848,0.473,1.32,1.32,1.32,2.423v6.658c0,0.177-0.139,0.315-0.315,0.315h-0.65c-0.178,0-0.315-0.138-0.315-0.315v-6.658
			c0-0.63-0.217-1.044-0.649-1.28c-0.335-0.177-0.689-0.197-0.689-0.197h-0.138c-0.611,0-1.084,0.453-1.518,1.004
			c-0.118,0.138-0.217,0.394-0.217,0.571v6.56c0,0.177-0.137,0.315-0.314,0.315H327.249z"/>
		<path fill="#FFFFFF" d="M341.55,16.066h-5.594c0.02,0.453,0.078,0.926,0.178,1.418c0.334,1.556,1.615,1.733,2.146,1.733
			c0.453,0,1.438-0.138,1.93-1.123c0.079-0.158,0.257-0.295,0.434-0.295h0.689c0.178,0,0.296,0.138,0.236,0.315
			c-0.453,1.477-1.693,2.383-3.289,2.383c-1.733,0-3.034-1.064-3.408-2.758c-0.453-2.147-0.02-4.275,0-4.354v-0.02
			c0.374-1.694,1.675-2.738,3.408-2.738c1.713,0,3.014,1.044,3.388,2.738v0.02c0.021,0.059,0.217,1.044,0.217,2.364
			C341.885,15.928,341.728,16.066,341.55,16.066z M335.995,14.786h4.57c-0.039-0.65-0.139-1.103-0.139-1.142
			c-0.354-1.557-1.615-1.733-2.146-1.733s-1.813,0.177-2.146,1.733C336.134,13.683,336.034,14.136,335.995,14.786z"/>
		<path fill="#FFFFFF" d="M348.956,11.043c0.709,0.374,1.557,1.182,1.557,2.856v6.146c0,0.177-0.139,0.315-0.315,0.315h-0.65
			c-0.177,0-0.315-0.138-0.315-0.315v-6.146c0-0.827-0.275-1.399-0.847-1.714c-0.453-0.256-0.946-0.275-0.965-0.275h-0.178
			c-0.827,0-1.379,0.414-1.931,0.945c-0.137,0.118-0.236,0.354-0.236,0.532v6.658c0,0.177-0.138,0.315-0.315,0.315h-0.649
			c-0.178,0-0.314-0.138-0.314-0.315v-8.963c0-0.177,0.137-0.315,0.314-0.315h0.649c0.178,0,0.315,0.119,0.315,0.296
			c0,0.157,0,0.295,0,0.295c0.571-0.414,1.261-0.729,2.167-0.729h0.178C347.498,10.629,348.228,10.649,348.956,11.043z"/>
		<path fill="#FFFFFF" d="M357.071,12.047h-2.244v5.24c0,0.492,0.176,0.985,0.491,1.359c0.178,0.197,0.552,0.572,1.103,0.572h0.65
			c0.178,0,0.316,0.138,0.316,0.315v0.63c0,0.177-0.139,0.335-0.316,0.335h-0.65c-0.787,0-1.535-0.375-2.088-1.044
			c-0.492-0.591-0.787-1.378-0.787-2.167v-5.24h-1.281c-0.176,0-0.314-0.157-0.314-0.334v-0.63c0-0.177,0.139-0.315,0.314-0.315
			h1.281V8.522c0-0.177,0.138-0.315,0.314-0.315h0.65c0.178,0,0.316,0.138,0.316,0.315v2.245h2.244c0.178,0,0.316,0.138,0.316,0.315
			v0.63C357.388,11.89,357.249,12.047,357.071,12.047z"/>
		<path fill="#FFFFFF" d="M302.785,40.816c-0.178,0-0.315-0.138-0.315-0.315V28.327c0-0.177,0.138-0.315,0.315-0.315h0.649
			c0.178,0,0.314,0.138,0.314,0.315v11.208h5.438c0.178,0,0.315,0.138,0.315,0.315v0.65c0,0.177-0.138,0.315-0.315,0.315H302.785z"
			/>
		<path fill="#FFFFFF" d="M317.302,36.522h-5.594c0.02,0.453,0.078,0.926,0.178,1.418c0.334,1.556,1.615,1.733,2.146,1.733
			c0.453,0,1.438-0.138,1.93-1.123c0.079-0.158,0.257-0.295,0.434-0.295h0.689c0.178,0,0.296,0.138,0.236,0.315
			c-0.453,1.477-1.693,2.383-3.289,2.383c-1.733,0-3.034-1.064-3.408-2.758c-0.453-2.147-0.02-4.275,0-4.354v-0.02
			c0.374-1.694,1.675-2.738,3.408-2.738c1.713,0,3.014,1.044,3.388,2.738v0.02c0.021,0.059,0.217,1.044,0.217,2.364
			C317.637,36.384,317.479,36.522,317.302,36.522z M311.747,35.241h4.57c-0.039-0.65-0.139-1.103-0.139-1.142
			c-0.354-1.557-1.615-1.734-2.146-1.734s-1.813,0.177-2.146,1.734C311.886,34.138,311.786,34.591,311.747,35.241z"/>
		<path fill="#FFFFFF" d="M324.964,31.794c0.531,0.492,0.769,1.182,0.769,2.167v6.54c0,0.177-0.138,0.315-0.315,0.315h-0.65
			c-0.177,0-0.314-0.138-0.314-0.315v-0.453c-0.217,0.177-0.453,0.315-0.67,0.434c-0.926,0.453-1.852,0.473-1.891,0.473h-0.316
			c-1.418,0-2.561-1.162-2.561-2.561v-0.197c0-1.3,0.67-2.147,1.99-2.542l2.915-0.827c0.06-0.039,0.532-0.177,0.532-0.611v-0.256
			c0-1.103-0.275-1.596-1.91-1.596c-1.479,0-1.853,0.394-1.912,1.281c-0.02,0.177-0.157,0.315-0.334,0.315h-0.65
			c-0.178,0-0.314-0.138-0.295-0.315c0.039-0.828,0.295-1.418,0.748-1.852c0.531-0.473,1.3-0.709,2.443-0.709
			C323.663,31.085,324.433,31.322,324.964,31.794z M324.452,37.113V35.99c-0.079,0.02-0.158,0.059-0.217,0.059l-2.877,0.847
			c-0.886,0.256-1.063,0.709-1.063,1.3v0.197c0,0.689,0.571,1.281,1.279,1.281h0.316c0,0,0.689-0.02,1.358-0.355
			C324.058,38.886,324.452,38.176,324.452,37.113z"/>
		<path fill="#FFFFFF" d="M331.307,31.085c0.925,0,1.614,0.315,2.187,0.749v-3.506c0-0.177,0.157-0.315,0.334-0.315h0.631
			c0.178,0,0.315,0.138,0.315,0.315v12.174c0,0.177-0.138,0.315-0.315,0.315h-0.631c-0.177,0-0.334-0.138-0.334-0.315v-0.295
			c-0.572,0.414-1.262,0.749-2.187,0.749c-1.733,0-3.034-1.064-3.389-2.758c-0.453-2.167-0.02-4.275,0-4.354
			C328.272,32.149,329.573,31.085,331.307,31.085z M329.179,34.099c0,0.02-0.394,1.93,0,3.841c0.314,1.556,1.596,1.733,2.128,1.733
			c0.827,0,1.397-0.414,1.97-0.965c0.118-0.118,0.217-0.375,0.217-0.552v-4.294c0-0.177-0.099-0.414-0.217-0.552
			c-0.572-0.532-1.143-0.946-1.97-0.946C330.774,32.365,329.493,32.542,329.179,34.099z"/>
		<path fill="#FFFFFF" d="M343.696,36.522h-5.594c0.02,0.453,0.078,0.926,0.176,1.418c0.336,1.556,1.616,1.733,2.148,1.733
			c0.453,0,1.438-0.138,1.93-1.123c0.079-0.158,0.256-0.295,0.434-0.295h0.689c0.178,0,0.296,0.138,0.236,0.315
			c-0.453,1.477-1.693,2.383-3.289,2.383c-1.733,0-3.034-1.064-3.408-2.758c-0.453-2.147-0.02-4.275,0-4.354v-0.02
			c0.374-1.694,1.675-2.738,3.408-2.738c1.713,0,3.014,1.044,3.388,2.738v0.02c0.021,0.059,0.217,1.044,0.217,2.364
			C344.031,36.384,343.874,36.522,343.696,36.522z M338.142,35.241h4.57c-0.04-0.65-0.139-1.103-0.139-1.142
			c-0.354-1.557-1.615-1.734-2.146-1.734c-0.532,0-1.813,0.177-2.148,1.734C338.278,34.138,338.181,34.591,338.142,35.241z"/>
		<path fill="#FFFFFF" d="M349.468,31.085c0.177,0,0.314,0.138,0.314,0.315v0.63c0,0.178-0.138,0.315-0.314,0.335
			c-0.887,0.079-1.478,0.453-2.01,0.946c-0.139,0.118-0.236,0.354-0.236,0.532v6.658c0,0.177-0.138,0.315-0.315,0.315h-0.649
			c-0.178,0-0.315-0.138-0.315-0.315v-8.982c0-0.177,0.138-0.315,0.315-0.315h0.649c0.178,0,0.315,0.138,0.315,0.315v0.334
			C347.773,31.479,348.522,31.144,349.468,31.085z"/>
		<path fill="#FFFFFF" d="M355.554,35.813c1.005,0.395,1.557,1.202,1.557,2.246c0,1.221-0.531,1.891-0.965,2.246
			c-0.553,0.414-1.301,0.65-2.227,0.65s-1.675-0.236-2.226-0.65c-0.413-0.315-0.887-0.906-0.966-1.911
			c-0.02-0.177,0.138-0.335,0.315-0.335h0.63c0.178,0,0.315,0.158,0.336,0.335c0.059,0.394,0.217,0.689,0.473,0.906
			c0.314,0.236,0.807,0.375,1.438,0.375c0.63,0,1.123-0.138,1.438-0.375c0.315-0.256,0.473-0.67,0.473-1.241
			c0-0.315-0.078-0.788-0.748-1.063c-0.078-0.04-0.807-0.295-1.379-0.512c-0.828-0.295-1.34-0.473-1.438-0.512
			c-0.887-0.354-1.418-1.104-1.418-2.009c0-1.3,0.512-2.876,3.014-2.876h0.059c2.285,0,2.916,1.32,2.994,2.561
			c0.02,0.177-0.138,0.315-0.315,0.315h-0.63c-0.178,0-0.315-0.138-0.335-0.315c-0.079-0.926-0.571-1.281-1.714-1.281h-0.059
			c-1.261,0-1.734,0.434-1.734,1.596c0,0.473,0.335,0.709,0.611,0.828c0.098,0.02,0.808,0.295,1.398,0.492
			C354.962,35.577,355.456,35.773,355.554,35.813z"/>
	</g>
	<g>
		<path fill="#FFFFFF" d="M278.989,79.078h0.65c0.177,0,0.314,0.138,0.354,0.315c0.021,0.197,0.099,0.453,0.235,0.709
			c0.316,0.611,0.848,0.906,1.636,0.906c0.827,0,1.358-0.315,1.675-0.926c0.236-0.493,0.256-1.005,0.256-1.005v-8.451h-2.246
			c-0.177,0-0.314-0.138-0.314-0.315v-0.65c0-0.177,0.138-0.315,0.314-0.315h3.211c0.178,0,0.315,0.138,0.315,0.315v9.416
			c0,0.079-0.02,0.808-0.394,1.576c-0.236,0.473-0.553,0.847-0.966,1.123c-0.512,0.335-1.123,0.512-1.852,0.512
			c-0.709,0-1.319-0.177-1.832-0.512c-0.413-0.275-0.729-0.65-0.965-1.123c-0.257-0.493-0.335-0.965-0.374-1.261
			C278.675,79.216,278.812,79.078,278.989,79.078z"/>
		<path fill="#FFFFFF" d="M294.216,79.531c-0.354,1.694-1.654,2.758-3.389,2.758c-1.732,0-3.033-1.063-3.407-2.758
			c-0.454-2.147-0.021-4.274,0-4.354v-0.02c0.374-1.694,1.675-2.738,3.407-2.738c1.714,0,3.014,1.044,3.389,2.738v0.02
			C294.235,75.256,294.669,77.383,294.216,79.531z M292.975,75.434c-0.354-1.556-1.616-1.733-2.147-1.733s-1.813,0.177-2.146,1.733
			c-0.02,0.059-0.395,1.97,0,3.841c0.334,1.557,1.615,1.734,2.146,1.734s1.813-0.177,2.147-1.734
			C293.368,77.403,292.975,75.512,292.975,75.434z"/>
		<path fill="#FFFFFF" d="M297.919,81.875c-0.709-0.374-1.557-1.182-1.557-2.856v-6.146c0-0.177,0.138-0.315,0.315-0.315h0.649
			c0.178,0,0.315,0.138,0.315,0.315v6.146c0,0.828,0.276,1.379,0.847,1.714c0.453,0.256,0.945,0.276,0.966,0.276h0.177
			c0.828,0,1.379-0.414,1.951-0.946c0.117-0.118,0.217-0.374,0.217-0.551v-6.639c0-0.177,0.138-0.315,0.314-0.315h0.65
			c0.177,0,0.314,0.138,0.314,0.315v8.963c0,0.177-0.138,0.315-0.314,0.315h-0.65c-0.177,0-0.314-0.138-0.314-0.295
			c0-0.177,0-0.315,0-0.315c-0.572,0.434-1.262,0.749-2.168,0.749h-0.177C299.376,82.289,298.667,82.269,297.919,81.875z"/>
		<path fill="#FFFFFF" d="M309.048,72.42c0.178,0,0.315,0.138,0.315,0.315v0.63c0,0.177-0.138,0.315-0.315,0.335
			c-0.887,0.079-1.477,0.453-2.01,0.945c-0.138,0.118-0.236,0.354-0.236,0.532v6.658c0,0.177-0.137,0.315-0.314,0.315h-0.65
			c-0.178,0-0.314-0.138-0.314-0.315v-8.982c0-0.177,0.137-0.315,0.314-0.315h0.65c0.178,0,0.314,0.138,0.314,0.315v0.335
			C307.354,72.813,308.103,72.479,309.048,72.42z"/>
		<path fill="#FFFFFF" d="M315.962,72.833c0.709,0.375,1.557,1.182,1.557,2.856v6.146c0,0.177-0.139,0.315-0.315,0.315h-0.65
			c-0.177,0-0.315-0.138-0.315-0.315v-6.146c0-0.827-0.275-1.398-0.848-1.714c-0.452-0.256-0.945-0.275-0.965-0.275h-0.177
			c-0.827,0-1.38,0.414-1.931,0.945c-0.137,0.118-0.236,0.354-0.236,0.532v6.658c0,0.177-0.138,0.315-0.315,0.315h-0.649
			c-0.178,0-0.315-0.138-0.315-0.315v-8.963c0-0.177,0.138-0.315,0.315-0.315h0.649c0.178,0,0.315,0.118,0.315,0.295
			c0,0.158,0,0.295,0,0.295c0.57-0.414,1.261-0.729,2.167-0.729h0.177C314.504,72.42,315.232,72.439,315.962,72.833z"/>
		<path fill="#FFFFFF" d="M325.3,73.128c0.531,0.493,0.768,1.183,0.768,2.167v6.54c0,0.177-0.138,0.315-0.315,0.315h-0.65
			c-0.177,0-0.315-0.138-0.315-0.315v-0.453c-0.217,0.178-0.453,0.315-0.67,0.434c-0.925,0.453-1.852,0.473-1.891,0.473h-0.314
			c-1.419,0-2.561-1.162-2.561-2.561v-0.197c0-1.3,0.669-2.147,1.988-2.541l2.916-0.827c0.059-0.04,0.531-0.177,0.531-0.611v-0.256
			c0-1.104-0.275-1.596-1.91-1.596c-1.478,0-1.852,0.394-1.911,1.28c-0.019,0.177-0.157,0.315-0.334,0.315h-0.65
			c-0.178,0-0.315-0.138-0.296-0.315c0.039-0.827,0.296-1.418,0.748-1.852c0.532-0.473,1.301-0.708,2.443-0.708
			C323.999,72.42,324.767,72.656,325.3,73.128z M324.786,78.447v-1.123c-0.078,0.02-0.157,0.059-0.217,0.059l-2.875,0.847
			c-0.887,0.256-1.063,0.709-1.063,1.3v0.197c0,0.69,0.571,1.281,1.28,1.281h0.314c0,0,0.689-0.02,1.359-0.354
			C324.393,80.22,324.786,79.511,324.786,78.447z"/>
		<path fill="#FFFFFF" d="M329.672,79.728c0,0.532,0.394,1.143,0.925,1.143h0.355c0.178,0,0.314,0.138,0.314,0.315v0.65
			c0,0.177-0.137,0.315-0.314,0.315h-0.355c-1.319,0-2.205-1.261-2.205-2.423V69.662c0-0.177,0.137-0.315,0.314-0.315h0.65
			c0.177,0,0.315,0.138,0.315,0.315V79.728z"/>
		<path fill="#FFFFFF" d="M334.754,72.873v8.963c0,0.177-0.139,0.315-0.315,0.315h-0.65c-0.178,0-0.314-0.138-0.314-0.315v-7.997
			h-1.281c-0.177,0-0.314-0.158-0.314-0.335v-0.63c0-0.177,0.138-0.315,0.314-0.315h2.246
			C334.615,72.558,334.754,72.695,334.754,72.873z M334.754,70.312v0.63c0,0.177-0.139,0.335-0.315,0.335h-0.65
			c-0.178,0-0.314-0.158-0.314-0.335v-0.63c0-0.178,0.137-0.315,0.314-0.315h0.65C334.615,69.997,334.754,70.134,334.754,70.312z"/>
		<path fill="#FFFFFF" d="M341.529,77.147c1.005,0.394,1.557,1.202,1.557,2.246c0,1.221-0.532,1.891-0.966,2.246
			c-0.552,0.414-1.299,0.65-2.226,0.65c-0.926,0-1.675-0.236-2.226-0.65c-0.414-0.315-0.887-0.906-0.966-1.911
			c-0.019-0.177,0.138-0.334,0.315-0.334h0.631c0.177,0,0.314,0.158,0.334,0.334c0.06,0.394,0.217,0.69,0.473,0.907
			c0.316,0.236,0.809,0.374,1.438,0.374s1.123-0.138,1.438-0.374c0.314-0.256,0.473-0.67,0.473-1.241
			c0-0.315-0.078-0.788-0.749-1.064c-0.079-0.039-0.808-0.295-1.379-0.512c-0.827-0.295-1.339-0.473-1.438-0.512
			c-0.886-0.355-1.418-1.103-1.418-2.009c0-1.3,0.512-2.876,3.015-2.876h0.059c2.285,0,2.915,1.319,2.994,2.561
			c0.021,0.177-0.138,0.315-0.315,0.315h-0.631c-0.176,0-0.314-0.138-0.334-0.315c-0.079-0.926-0.57-1.28-1.714-1.28h-0.059
			c-1.261,0-1.734,0.433-1.734,1.596c0,0.473,0.335,0.709,0.611,0.827c0.099,0.02,0.808,0.295,1.398,0.493
			C340.938,76.911,341.431,77.108,341.529,77.147z"/>
		<path fill="#FFFFFF" d="M349.231,73.838h-2.246v5.239c0,0.493,0.178,0.985,0.492,1.359c0.178,0.197,0.553,0.571,1.104,0.571h0.65
			c0.177,0,0.314,0.138,0.314,0.315v0.63c0,0.178-0.138,0.335-0.314,0.335h-0.65c-0.788,0-1.536-0.374-2.088-1.044
			c-0.492-0.591-0.788-1.379-0.788-2.167v-5.239h-1.28c-0.178,0-0.315-0.158-0.315-0.335v-0.63c0-0.177,0.138-0.315,0.315-0.315
			h1.28v-2.246c0-0.178,0.138-0.315,0.315-0.315h0.65c0.177,0,0.314,0.138,0.314,0.315v2.246h2.246c0.177,0,0.314,0.138,0.314,0.315
			v0.63C349.546,73.681,349.408,73.838,349.231,73.838z"/>
		<path fill="#FFFFFF" d="M355.554,77.147c1.005,0.394,1.557,1.202,1.557,2.246c0,1.221-0.531,1.891-0.965,2.246
			c-0.553,0.414-1.301,0.65-2.227,0.65s-1.674-0.236-2.226-0.65c-0.413-0.315-0.886-0.906-0.966-1.911
			c-0.019-0.177,0.139-0.334,0.315-0.334h0.63c0.178,0,0.316,0.158,0.336,0.334c0.059,0.394,0.217,0.69,0.473,0.907
			c0.315,0.236,0.807,0.374,1.438,0.374s1.123-0.138,1.438-0.374c0.315-0.256,0.473-0.67,0.473-1.241
			c0-0.315-0.079-0.788-0.749-1.064c-0.078-0.039-0.807-0.295-1.379-0.512c-0.827-0.295-1.339-0.473-1.438-0.512
			c-0.887-0.355-1.418-1.103-1.418-2.009c0-1.3,0.512-2.876,3.014-2.876h0.059c2.285,0,2.916,1.319,2.994,2.561
			c0.02,0.177-0.138,0.315-0.314,0.315h-0.631c-0.177,0-0.315-0.138-0.334-0.315c-0.08-0.926-0.572-1.28-1.715-1.28h-0.059
			c-1.261,0-1.734,0.433-1.734,1.596c0,0.473,0.336,0.709,0.611,0.827c0.099,0.02,0.809,0.295,1.398,0.493
			C354.963,76.911,355.456,77.108,355.554,77.147z"/>
		<path fill="#FFFFFF" d="M271.032,93.584c0.531,0.493,0.768,1.183,0.768,2.167v6.54c0,0.177-0.137,0.315-0.314,0.315h-0.65
			c-0.178,0-0.315-0.138-0.315-0.315v-0.453c-0.217,0.178-0.453,0.315-0.67,0.434c-0.925,0.453-1.852,0.473-1.891,0.473h-0.315
			c-1.418,0-2.561-1.162-2.561-2.561v-0.197c0-1.3,0.67-2.147,1.989-2.541l2.915-0.827c0.06-0.04,0.532-0.177,0.532-0.611v-0.256
			c0-1.103-0.275-1.595-1.911-1.595c-1.477,0-1.852,0.394-1.91,1.28c-0.02,0.177-0.158,0.315-0.334,0.315h-0.65
			c-0.178,0-0.316-0.138-0.296-0.315c0.04-0.827,0.296-1.418,0.748-1.852c0.532-0.473,1.3-0.708,2.442-0.708
			C269.731,92.875,270.5,93.111,271.032,93.584z M270.52,98.903V97.78c-0.079,0.02-0.157,0.059-0.217,0.059l-2.876,0.847
			c-0.887,0.256-1.063,0.709-1.063,1.3v0.197c0,0.69,0.57,1.281,1.279,1.281h0.315c0,0,0.689-0.02,1.358-0.354
			C270.126,100.676,270.52,99.967,270.52,98.903z"/>
		<path fill="#FFFFFF" d="M279.344,93.289c0.71,0.374,1.557,1.182,1.557,2.856v6.146c0,0.177-0.138,0.315-0.315,0.315h-0.65
			c-0.177,0-0.314-0.138-0.314-0.315v-6.146c0-0.827-0.276-1.398-0.848-1.714c-0.453-0.256-0.945-0.275-0.965-0.275h-0.178
			c-0.826,0-1.379,0.414-1.93,0.945c-0.139,0.118-0.236,0.354-0.236,0.532v6.658c0,0.177-0.139,0.315-0.316,0.315h-0.648
			c-0.178,0-0.316-0.138-0.316-0.315v-8.963c0-0.177,0.139-0.315,0.316-0.315h0.648c0.178,0,0.316,0.118,0.316,0.295
			c0,0.158,0,0.295,0,0.295c0.571-0.414,1.26-0.729,2.166-0.729h0.178C277.886,92.875,278.614,92.895,279.344,93.289z"/>
		<path fill="#FFFFFF" d="M286.455,92.875c0.926,0,1.615,0.315,2.187,0.748v-3.506c0-0.177,0.157-0.315,0.335-0.315h0.63
			c0.178,0,0.316,0.138,0.316,0.315v12.174c0,0.177-0.139,0.315-0.316,0.315h-0.63c-0.178,0-0.335-0.138-0.335-0.315v-0.295
			c-0.571,0.414-1.261,0.749-2.187,0.749c-1.733,0-3.033-1.063-3.389-2.758c-0.452-2.167-0.019-4.274,0-4.354
			C283.422,93.939,284.722,92.875,286.455,92.875z M284.327,95.889c0,0.02-0.394,1.93,0,3.841c0.315,1.557,1.596,1.734,2.128,1.734
			c0.827,0,1.398-0.414,1.97-0.965c0.118-0.118,0.217-0.374,0.217-0.552v-4.294c0-0.178-0.099-0.414-0.217-0.552
			c-0.571-0.532-1.143-0.945-1.97-0.945C285.923,94.156,284.643,94.333,284.327,95.889z"/>
		<path fill="#FFFFFF" d="M300.618,102.606h-3.783c-0.178,0-0.314-0.138-0.314-0.315V90.117c0-0.177,0.137-0.315,0.314-0.315h3.625
			c0.099,0,0.887,0.02,1.693,0.414c0.513,0.256,0.926,0.611,1.222,1.063c0.354,0.552,0.552,1.202,0.552,1.99
			c0,0.768-0.197,1.438-0.552,1.97c-0.196,0.295-0.452,0.551-0.748,0.768c0.769,0.473,1.576,1.359,1.576,3.014
			c0,1.852-0.985,2.738-1.833,3.152C301.522,102.587,300.716,102.606,300.618,102.606z M297.8,95.436h2.66
			c0.039,0,0.61-0.02,1.162-0.295c0.689-0.354,1.023-0.985,1.023-1.872c0-0.906-0.334-1.517-1.023-1.891
			c-0.57-0.275-1.162-0.295-1.162-0.295h-2.66V95.436z M302.923,99.021c0-0.966-0.375-1.635-1.123-2.01
			c-0.592-0.295-1.182-0.295-1.182-0.295c-0.158,0-0.158,0-0.158,0h-2.66v4.61h2.818c0,0,0.63,0,1.221-0.315
			C302.567,100.637,302.923,99.986,302.923,99.021z"/>
		<path fill="#FFFFFF" d="M307.512,100.183c0,0.532,0.394,1.143,0.925,1.143h0.355c0.178,0,0.314,0.138,0.314,0.315v0.65
			c0,0.177-0.137,0.315-0.314,0.315h-0.355c-1.319,0-2.205-1.261-2.205-2.423V90.117c0-0.177,0.137-0.315,0.314-0.315h0.65
			c0.177,0,0.315,0.138,0.315,0.315V100.183z"/>
		<path fill="#FFFFFF" d="M317.242,99.986c-0.354,1.694-1.654,2.758-3.388,2.758c-1.734,0-3.034-1.063-3.408-2.758
			c-0.453-2.147-0.02-4.274,0-4.354v-0.02c0.374-1.694,1.674-2.738,3.408-2.738c1.713,0,3.014,1.044,3.388,2.738v0.02
			C317.263,95.712,317.694,97.839,317.242,99.986z M316.001,95.889c-0.354-1.556-1.615-1.733-2.146-1.733
			c-0.532,0-1.813,0.177-2.148,1.733c-0.019,0.059-0.393,1.97,0,3.841c0.336,1.557,1.616,1.734,2.148,1.734
			c0.531,0,1.812-0.177,2.146-1.734C316.396,97.859,316.001,95.968,316.001,95.889z"/>
		<path fill="#FFFFFF" d="M326.283,94.293h-0.413l-0.316,0.079c0.277,0.473,0.414,1.044,0.414,1.714c0,1.97-1.3,3.191-3.388,3.191
			c-0.473,0-0.906-0.059-1.3-0.178c-0.335,0.08-0.453,0.256-0.513,0.395c-0.099,0.177-0.118,0.354-0.118,0.354
			c0,0.276,0.099,0.473,0.275,0.63c0.158,0.098,0.336,0.138,0.355,0.158h0.02l3.29,0.65c0.374,0.079,0.945,0.276,1.339,0.768
			c0.335,0.414,0.492,0.965,0.492,1.714c0,0.788-0.334,1.438-0.984,1.891c-0.67,0.453-1.596,0.669-2.856,0.669
			s-2.206-0.216-2.856-0.669c-0.649-0.453-0.984-1.103-0.984-1.891c0-0.867,0.314-1.517,0.945-1.99
			c0.137-0.098,0.295-0.197,0.492-0.275c-0.434-0.315-0.808-0.847-0.808-1.655c0-0.079,0.021-0.493,0.235-0.946
			c0.119-0.197,0.258-0.394,0.415-0.551c-0.532-0.552-0.828-1.32-0.828-2.266c0-1.024,0.335-1.872,0.985-2.442
			c0.591-0.493,1.418-0.768,2.403-0.768c0.749,0,1.398,0.158,1.931,0.453l0.867-0.236c0.176-0.039,0.453-0.079,0.63-0.079h0.275
			c0.178,0,0.335,0.138,0.335,0.315v0.63C326.618,94.136,326.461,94.293,326.283,94.293z M324.294,102.527l-1.871-0.374
			c-2.227,0.414-2.403,0.945-2.403,1.615c0,0.354,0.138,0.63,0.433,0.827c0.296,0.197,0.906,0.453,2.128,0.453
			s1.832-0.256,2.127-0.453c0.296-0.197,0.434-0.473,0.434-0.827C325.141,102.843,324.864,102.666,324.294,102.527z M324.688,96.086
			c0-1.28-0.71-1.93-2.108-1.93c-1.399,0-2.108,0.65-2.108,1.93c0,0.65,0.178,1.123,0.553,1.458
			c0.354,0.295,0.887,0.453,1.556,0.453s1.202-0.158,1.556-0.453C324.511,97.208,324.688,96.736,324.688,96.086z"/>
		<path fill="#FFFFFF" d="M335.147,94.293h-0.414l-0.314,0.079c0.275,0.473,0.413,1.044,0.413,1.714c0,1.97-1.3,3.191-3.388,3.191
			c-0.473,0-0.906-0.059-1.3-0.178c-0.335,0.08-0.454,0.256-0.513,0.395c-0.099,0.177-0.117,0.354-0.117,0.354
			c0,0.276,0.098,0.473,0.275,0.63c0.156,0.098,0.334,0.138,0.354,0.158h0.019l3.291,0.65c0.374,0.079,0.945,0.276,1.339,0.768
			c0.335,0.414,0.493,0.965,0.493,1.714c0,0.788-0.336,1.438-0.986,1.891c-0.669,0.453-1.595,0.669-2.855,0.669
			s-2.206-0.216-2.856-0.669c-0.649-0.453-0.985-1.103-0.985-1.891c0-0.867,0.316-1.517,0.946-1.99
			c0.138-0.098,0.295-0.197,0.493-0.275c-0.434-0.315-0.809-0.847-0.809-1.655c0-0.079,0.02-0.493,0.236-0.946
			c0.118-0.197,0.256-0.394,0.414-0.551c-0.532-0.552-0.828-1.32-0.828-2.266c0-1.024,0.336-1.872,0.986-2.442
			c0.59-0.493,1.418-0.768,2.402-0.768c0.749,0,1.398,0.158,1.93,0.453l0.867-0.236c0.178-0.039,0.453-0.079,0.631-0.079h0.275
			c0.178,0,0.335,0.138,0.335,0.315v0.63C335.482,94.136,335.325,94.293,335.147,94.293z M333.157,102.527l-1.871-0.374
			c-2.226,0.414-2.402,0.945-2.402,1.615c0,0.354,0.138,0.63,0.433,0.827c0.296,0.197,0.906,0.453,2.128,0.453
			s1.832-0.256,2.127-0.453c0.296-0.197,0.434-0.473,0.434-0.827C334.005,102.843,333.729,102.666,333.157,102.527z M333.552,96.086
			c0-1.28-0.709-1.93-2.107-1.93s-2.107,0.65-2.107,1.93c0,0.65,0.178,1.123,0.551,1.458c0.355,0.295,0.887,0.453,1.557,0.453
			s1.201-0.158,1.557-0.453C333.374,97.208,333.552,96.736,333.552,96.086z"/>
		<path fill="#FFFFFF" d="M343.696,98.312h-5.594c0.02,0.453,0.078,0.926,0.177,1.418c0.335,1.557,1.616,1.734,2.147,1.734
			c0.453,0,1.438-0.138,1.931-1.123c0.078-0.158,0.256-0.295,0.434-0.295h0.689c0.177,0,0.295,0.138,0.235,0.315
			c-0.452,1.478-1.693,2.384-3.289,2.384c-1.733,0-3.033-1.063-3.408-2.758c-0.453-2.147-0.02-4.274,0-4.354v-0.02
			c0.375-1.694,1.675-2.738,3.408-2.738c1.714,0,3.014,1.044,3.389,2.738v0.02c0.02,0.059,0.217,1.044,0.217,2.364
			C344.032,98.174,343.874,98.312,343.696,98.312z M338.142,97.032h4.57c-0.039-0.65-0.138-1.104-0.138-1.143
			c-0.354-1.556-1.615-1.733-2.147-1.733c-0.531,0-1.813,0.177-2.147,1.733C338.279,95.928,338.181,96.381,338.142,97.032z"/>
		<path fill="#FFFFFF" d="M349.468,92.875c0.178,0,0.315,0.138,0.315,0.315v0.63c0,0.177-0.138,0.315-0.315,0.335
			c-0.887,0.079-1.477,0.453-2.01,0.945c-0.138,0.118-0.236,0.354-0.236,0.532v6.658c0,0.177-0.138,0.315-0.314,0.315h-0.65
			c-0.178,0-0.314-0.138-0.314-0.315v-8.982c0-0.177,0.137-0.315,0.314-0.315h0.65c0.177,0,0.314,0.138,0.314,0.315v0.335
			C347.774,93.269,348.522,92.934,349.468,92.875z"/>
		<path fill="#FFFFFF" d="M355.554,97.603c1.005,0.394,1.557,1.202,1.557,2.246c0,1.221-0.531,1.891-0.965,2.245
			c-0.553,0.414-1.301,0.65-2.227,0.65s-1.674-0.236-2.226-0.65c-0.413-0.315-0.886-0.906-0.966-1.911
			c-0.019-0.177,0.139-0.334,0.315-0.334h0.63c0.178,0,0.316,0.158,0.336,0.334c0.059,0.394,0.217,0.69,0.473,0.907
			c0.315,0.236,0.807,0.374,1.438,0.374s1.123-0.138,1.438-0.374c0.315-0.256,0.473-0.67,0.473-1.241
			c0-0.315-0.079-0.788-0.749-1.064c-0.078-0.039-0.807-0.295-1.379-0.512c-0.827-0.295-1.339-0.473-1.438-0.512
			c-0.887-0.355-1.418-1.103-1.418-2.01c0-1.3,0.512-2.875,3.014-2.875h0.059c2.285,0,2.916,1.319,2.994,2.561
			c0.02,0.177-0.138,0.315-0.314,0.315h-0.631c-0.177,0-0.315-0.138-0.334-0.315c-0.08-0.926-0.572-1.28-1.715-1.28h-0.059
			c-1.261,0-1.734,0.433-1.734,1.595c0,0.473,0.336,0.709,0.611,0.827c0.099,0.02,0.809,0.296,1.398,0.493
			C354.963,97.366,355.456,97.563,355.554,97.603z"/>
	</g>
	<g>
		<path fill="#FFFFFF" d="M231.794,147.245h3.388c0.04,0,0.965,0,1.891,0.473c0.906,0.454,1.97,1.399,1.97,3.369
			c0,0.886-0.256,1.635-0.729,2.265c-0.395,0.474-0.907,0.867-1.557,1.143c-1.063,0.453-2.107,0.453-2.147,0.453h-1.852v4.787
			c0,0.177-0.138,0.314-0.315,0.314h-0.649c-0.178,0-0.315-0.138-0.315-0.314v-12.174
			C231.479,147.383,231.616,147.245,231.794,147.245z M237.762,151.087c0-1.084-0.414-1.813-1.261-2.226
			c-0.649-0.315-1.3-0.335-1.32-0.335h-2.423v5.141h1.852c0.02,0,0.867-0.02,1.674-0.374
			C237.27,152.879,237.762,152.15,237.762,151.087z"/>
		<path fill="#FFFFFF" d="M247.178,155.755h-5.594c0.02,0.453,0.079,0.927,0.177,1.419c0.335,1.556,1.616,1.733,2.148,1.733
			c0.453,0,1.438-0.138,1.93-1.123c0.079-0.157,0.256-0.296,0.434-0.296h0.689c0.177,0,0.295,0.139,0.236,0.315
			c-0.453,1.478-1.694,2.384-3.29,2.384c-1.733,0-3.034-1.063-3.409-2.758c-0.453-2.147-0.019-4.274,0-4.354v-0.021
			c0.375-1.693,1.675-2.737,3.409-2.737c1.713,0,3.014,1.044,3.388,2.737v0.021c0.02,0.059,0.217,1.044,0.217,2.363
			C247.513,155.617,247.355,155.755,247.178,155.755z M241.623,154.476h4.57c-0.039-0.65-0.138-1.104-0.138-1.143
			c-0.354-1.557-1.615-1.734-2.147-1.734c-0.532,0-1.813,0.178-2.148,1.734C241.76,153.371,241.662,153.825,241.623,154.476z"/>
		<path fill="#FFFFFF" d="M252.949,150.318c0.177,0,0.315,0.138,0.315,0.315v0.63c0,0.178-0.139,0.315-0.315,0.335
			c-0.887,0.079-1.478,0.453-2.009,0.945c-0.139,0.118-0.237,0.355-0.237,0.532v6.658c0,0.177-0.138,0.314-0.315,0.314h-0.649
			c-0.178,0-0.315-0.138-0.315-0.314v-8.982c0-0.178,0.137-0.315,0.315-0.315h0.649c0.178,0,0.315,0.138,0.315,0.315v0.335
			C251.255,150.712,252.004,150.378,252.949,150.318z"/>
		<path fill="#FFFFFF" d="M259.035,155.046c1.005,0.394,1.557,1.202,1.557,2.246c0,1.222-0.532,1.891-0.966,2.245
			c-0.551,0.414-1.299,0.65-2.226,0.65c-0.926,0-1.674-0.236-2.226-0.65c-0.414-0.315-0.886-0.905-0.965-1.91
			c-0.02-0.178,0.137-0.335,0.315-0.335h0.63c0.178,0,0.315,0.157,0.335,0.335c0.06,0.394,0.217,0.689,0.473,0.905
			c0.315,0.237,0.807,0.375,1.438,0.375s1.123-0.138,1.438-0.375c0.315-0.256,0.473-0.669,0.473-1.24
			c0-0.315-0.078-0.788-0.749-1.064c-0.078-0.039-0.807-0.295-1.379-0.512c-0.827-0.295-1.339-0.473-1.438-0.512
			c-0.887-0.354-1.418-1.104-1.418-2.01c0-1.3,0.512-2.876,3.014-2.876h0.059c2.285,0,2.915,1.32,2.994,2.561
			c0.021,0.177-0.138,0.315-0.315,0.315h-0.631c-0.176,0-0.314-0.139-0.334-0.315c-0.079-0.925-0.571-1.28-1.714-1.28h-0.059
			c-1.261,0-1.734,0.434-1.734,1.596c0,0.473,0.335,0.71,0.611,0.827c0.099,0.021,0.808,0.295,1.398,0.493
			C258.444,154.81,258.937,155.006,259.035,155.046z"/>
		<path fill="#FFFFFF" d="M269.14,157.43c-0.354,1.694-1.654,2.758-3.387,2.758c-1.734,0-3.035-1.063-3.408-2.758
			c-0.453-2.147-0.02-4.274,0-4.354v-0.021c0.373-1.693,1.674-2.737,3.408-2.737c1.713,0,3.014,1.044,3.387,2.737v0.021
			C269.16,153.155,269.594,155.282,269.14,157.43z M267.899,153.333c-0.355-1.557-1.615-1.734-2.146-1.734
			c-0.532,0-1.813,0.178-2.147,1.734c-0.021,0.059-0.395,1.97,0,3.841c0.335,1.556,1.615,1.733,2.147,1.733
			c0.531,0,1.812-0.178,2.146-1.733C268.293,155.303,267.899,153.411,267.899,153.333z"/>
		<path fill="#FFFFFF" d="M276.547,150.732c0.709,0.374,1.556,1.182,1.556,2.856v6.146c0,0.177-0.138,0.314-0.314,0.314h-0.65
			c-0.178,0-0.315-0.138-0.315-0.314v-6.146c0-0.828-0.275-1.399-0.847-1.715c-0.453-0.256-0.945-0.275-0.965-0.275h-0.178
			c-0.827,0-1.379,0.414-1.931,0.945c-0.138,0.118-0.237,0.355-0.237,0.532v6.658c0,0.177-0.137,0.314-0.314,0.314h-0.649
			c-0.178,0-0.315-0.138-0.315-0.314v-8.963c0-0.178,0.138-0.315,0.315-0.315h0.649c0.178,0,0.314,0.118,0.314,0.296
			c0,0.157,0,0.295,0,0.295c0.572-0.413,1.262-0.729,2.168-0.729h0.178C275.089,150.318,275.817,150.338,276.547,150.732z"/>
		<path fill="#FFFFFF" d="M285.884,151.027c0.531,0.493,0.768,1.183,0.768,2.167v6.54c0,0.177-0.137,0.314-0.314,0.314h-0.65
			c-0.177,0-0.315-0.138-0.315-0.314v-0.453c-0.217,0.178-0.452,0.315-0.669,0.434c-0.926,0.453-1.852,0.473-1.892,0.473h-0.315
			c-1.418,0-2.561-1.162-2.561-2.561v-0.197c0-1.3,0.67-2.147,1.99-2.541l2.914-0.828c0.06-0.039,0.532-0.177,0.532-0.61v-0.256
			c0-1.104-0.274-1.596-1.91-1.596c-1.478,0-1.852,0.395-1.911,1.28c-0.02,0.177-0.157,0.315-0.334,0.315h-0.65
			c-0.178,0-0.315-0.139-0.295-0.315c0.039-0.827,0.295-1.418,0.748-1.852c0.531-0.473,1.299-0.709,2.442-0.709
			C284.583,150.318,285.353,150.555,285.884,151.027z M285.371,156.347v-1.123c-0.078,0.02-0.157,0.059-0.217,0.059l-2.876,0.848
			c-0.886,0.256-1.063,0.708-1.063,1.3v0.197c0,0.689,0.57,1.28,1.279,1.28h0.315c0,0,0.689-0.02,1.359-0.354
			C284.978,158.119,285.371,157.41,285.371,156.347z"/>
		<path fill="#FFFFFF" d="M290.257,157.627c0,0.531,0.394,1.143,0.926,1.143h0.354c0.178,0,0.315,0.138,0.315,0.314v0.65
			c0,0.177-0.138,0.314-0.315,0.314h-0.354c-1.32,0-2.207-1.261-2.207-2.422v-10.066c0-0.178,0.138-0.315,0.315-0.315h0.65
			c0.177,0,0.315,0.138,0.315,0.315V157.627z"/>
		<path fill="#FFFFFF" d="M297.859,160.049c-0.178,0-0.315-0.138-0.315-0.314v-12.174c0-0.178,0.138-0.315,0.315-0.315h3.211
			c1.103,0,2.088,0.335,2.856,0.985c0.787,0.649,1.301,1.615,1.477,2.758c0.021,0.118,0.414,2.698,0,5.318
			c-0.176,1.143-0.689,2.088-1.496,2.758c-0.77,0.65-1.754,0.984-2.837,0.984H297.859z M298.824,158.77h2.246
			c1.636,0,2.816-1.024,3.073-2.659c0.373-2.424,0-4.905,0-4.926c-0.257-1.654-1.419-2.658-3.073-2.658h-2.246V158.77z"/>
		<path fill="#FFFFFF" d="M314.308,157.43c-0.355,1.694-1.654,2.758-3.389,2.758c-1.732,0-3.033-1.063-3.407-2.758
			c-0.454-2.147-0.021-4.274,0-4.354v-0.021c0.374-1.693,1.675-2.737,3.407-2.737c1.714,0,3.014,1.044,3.389,2.737v0.021
			C314.327,153.155,314.761,155.282,314.308,157.43z M313.066,153.333c-0.354-1.557-1.616-1.734-2.147-1.734
			s-1.813,0.178-2.146,1.734c-0.02,0.059-0.395,1.97,0,3.841c0.334,1.556,1.615,1.733,2.146,1.733s1.813-0.178,2.147-1.733
			C313.46,155.303,313.066,153.411,313.066,153.333z"/>
		<path fill="#FFFFFF" d="M321.358,160.049c-0.177,0-0.334-0.138-0.334-0.314v-6.658c0-0.631-0.197-1.044-0.65-1.281
			c-0.315-0.177-0.67-0.196-0.67-0.196h-0.139c-0.609,0-1.082,0.453-1.535,1.005c-0.119,0.138-0.197,0.395-0.197,0.571v6.56
			c0,0.177-0.139,0.314-0.315,0.314h-0.649c-0.178,0-0.315-0.138-0.315-0.314v-8.963c0-0.178,0.138-0.315,0.315-0.315h0.649
			c0.177,0,0.315,0.138,0.315,0.315v0.217c0.473-0.395,1.024-0.67,1.732-0.67h0.139c0.06,0,0.67,0.02,1.28,0.335
			c0.354,0.196,0.65,0.453,0.867,0.769c0.532-0.591,1.241-1.104,2.187-1.104h0.139c0.059,0,0.669,0.02,1.299,0.335
			c0.848,0.474,1.32,1.319,1.32,2.423v6.658c0,0.177-0.139,0.314-0.315,0.314h-0.649c-0.178,0-0.316-0.138-0.316-0.314v-6.658
			c0-0.631-0.217-1.044-0.648-1.281c-0.336-0.177-0.689-0.196-0.689-0.196h-0.139c-0.611,0-1.084,0.453-1.518,1.005
			c-0.117,0.138-0.217,0.395-0.217,0.571v6.56c0,0.177-0.137,0.314-0.314,0.314H321.358z"/>
		<path fill="#FFFFFF" d="M334.597,151.027c0.531,0.493,0.768,1.183,0.768,2.167v6.54c0,0.177-0.138,0.314-0.315,0.314h-0.65
			c-0.177,0-0.315-0.138-0.315-0.314v-0.453c-0.217,0.178-0.452,0.315-0.669,0.434c-0.926,0.453-1.853,0.473-1.892,0.473h-0.314
			c-1.418,0-2.561-1.162-2.561-2.561v-0.197c0-1.3,0.669-2.147,1.989-2.541l2.915-0.828c0.059-0.039,0.531-0.177,0.531-0.61v-0.256
			c0-1.104-0.275-1.596-1.91-1.596c-1.477,0-1.852,0.395-1.91,1.28c-0.02,0.177-0.158,0.315-0.335,0.315h-0.65
			c-0.178,0-0.315-0.139-0.296-0.315c0.04-0.827,0.296-1.418,0.748-1.852c0.533-0.473,1.301-0.709,2.443-0.709
			C333.296,150.318,334.064,150.555,334.597,151.027z M334.083,156.347v-1.123c-0.078,0.02-0.157,0.059-0.217,0.059l-2.875,0.848
			c-0.887,0.256-1.063,0.708-1.063,1.3v0.197c0,0.689,0.571,1.28,1.28,1.28h0.314c0,0,0.689-0.02,1.359-0.354
			C333.69,158.119,334.083,157.41,334.083,156.347z"/>
		<path fill="#FFFFFF" d="M339.697,150.771v8.963c0,0.177-0.138,0.314-0.315,0.314h-0.65c-0.178,0-0.314-0.138-0.314-0.314v-7.997
			h-1.281c-0.176,0-0.314-0.158-0.314-0.336v-0.63c0-0.178,0.139-0.315,0.314-0.315h2.246
			C339.56,150.456,339.697,150.594,339.697,150.771z M339.697,148.211v0.63c0,0.177-0.138,0.335-0.315,0.335h-0.65
			c-0.178,0-0.314-0.158-0.314-0.335v-0.63c0-0.178,0.137-0.315,0.314-0.315h0.65C339.56,147.896,339.697,148.033,339.697,148.211z"
			/>
		<path fill="#FFFFFF" d="M347.301,150.732c0.709,0.374,1.556,1.182,1.556,2.856v6.146c0,0.177-0.138,0.314-0.314,0.314h-0.65
			c-0.178,0-0.315-0.138-0.315-0.314v-6.146c0-0.828-0.275-1.399-0.847-1.715c-0.453-0.256-0.945-0.275-0.965-0.275h-0.178
			c-0.827,0-1.379,0.414-1.931,0.945c-0.138,0.118-0.236,0.355-0.236,0.532v6.658c0,0.177-0.138,0.314-0.315,0.314h-0.649
			c-0.178,0-0.315-0.138-0.315-0.314v-8.963c0-0.178,0.138-0.315,0.315-0.315h0.649c0.178,0,0.315,0.118,0.315,0.296
			c0,0.157,0,0.295,0,0.295c0.571-0.413,1.261-0.729,2.167-0.729h0.178C345.843,150.318,346.571,150.338,347.301,150.732z"/>
		<path fill="#FFFFFF" d="M355.554,155.046c1.005,0.394,1.557,1.202,1.557,2.246c0,1.222-0.531,1.891-0.965,2.245
			c-0.553,0.414-1.301,0.65-2.227,0.65s-1.674-0.236-2.226-0.65c-0.413-0.315-0.886-0.905-0.966-1.91
			c-0.019-0.178,0.139-0.335,0.315-0.335h0.63c0.178,0,0.316,0.157,0.336,0.335c0.059,0.394,0.217,0.689,0.473,0.905
			c0.315,0.237,0.807,0.375,1.438,0.375s1.123-0.138,1.438-0.375c0.315-0.256,0.473-0.669,0.473-1.24
			c0-0.315-0.079-0.788-0.749-1.064c-0.078-0.039-0.807-0.295-1.379-0.512c-0.827-0.295-1.339-0.473-1.438-0.512
			c-0.887-0.354-1.418-1.104-1.418-2.01c0-1.3,0.512-2.876,3.014-2.876h0.059c2.285,0,2.916,1.32,2.994,2.561
			c0.02,0.177-0.138,0.315-0.314,0.315h-0.631c-0.177,0-0.315-0.139-0.334-0.315c-0.08-0.925-0.572-1.28-1.715-1.28h-0.059
			c-1.261,0-1.734,0.434-1.734,1.596c0,0.473,0.336,0.71,0.611,0.827c0.099,0.021,0.809,0.295,1.398,0.493
			C354.963,154.81,355.456,155.006,355.554,155.046z"/>
		<path fill="#FFFFFF" d="M195.748,180.505c-0.177,0-0.334-0.138-0.334-0.315v-6.658c0-0.63-0.197-1.044-0.65-1.28
			c-0.315-0.177-0.669-0.197-0.669-0.197h-0.138c-0.61,0-1.083,0.454-1.536,1.005c-0.118,0.138-0.198,0.395-0.198,0.571v6.56
			c0,0.178-0.137,0.315-0.315,0.315h-0.649c-0.178,0-0.315-0.138-0.315-0.315v-8.963c0-0.177,0.138-0.314,0.315-0.314h0.649
			c0.178,0,0.315,0.138,0.315,0.314v0.217c0.473-0.394,1.025-0.669,1.734-0.669h0.138c0.059,0,0.669,0.019,1.28,0.334
			c0.355,0.197,0.65,0.454,0.867,0.769c0.532-0.591,1.241-1.103,2.187-1.103h0.138c0.059,0,0.669,0.019,1.3,0.334
			c0.847,0.474,1.32,1.32,1.32,2.423v6.658c0,0.178-0.138,0.315-0.315,0.315h-0.65c-0.177,0-0.315-0.138-0.315-0.315v-6.658
			c0-0.63-0.217-1.044-0.65-1.28c-0.334-0.177-0.689-0.197-0.689-0.197h-0.138c-0.61,0-1.083,0.454-1.517,1.005
			c-0.118,0.138-0.217,0.395-0.217,0.571v6.56c0,0.178-0.137,0.315-0.315,0.315H195.748z"/>
		<path fill="#FFFFFF" d="M208.985,171.483c0.532,0.492,0.768,1.182,0.768,2.167v6.539c0,0.178-0.138,0.315-0.315,0.315h-0.65
			c-0.177,0-0.315-0.138-0.315-0.315v-0.453c-0.216,0.178-0.453,0.315-0.669,0.434c-0.925,0.453-1.852,0.474-1.891,0.474h-0.315
			c-1.418,0-2.561-1.163-2.561-2.562v-0.196c0-1.301,0.67-2.147,1.99-2.541l2.916-0.828c0.059-0.039,0.531-0.177,0.531-0.61v-0.256
			c0-1.104-0.275-1.597-1.91-1.597c-1.478,0-1.852,0.395-1.911,1.281c-0.02,0.177-0.158,0.315-0.335,0.315h-0.65
			c-0.177,0-0.315-0.139-0.296-0.315c0.04-0.827,0.296-1.419,0.749-1.852c0.532-0.474,1.301-0.709,2.443-0.709
			C207.685,170.774,208.454,171.01,208.985,171.483z M208.473,176.802v-1.122c-0.078,0.019-0.157,0.059-0.216,0.059l-2.876,0.847
			c-0.887,0.256-1.064,0.709-1.064,1.301v0.196c0,0.69,0.572,1.28,1.281,1.28h0.315c0,0,0.689-0.02,1.359-0.354
			C208.079,178.574,208.473,177.865,208.473,176.802z"/>
		<path fill="#FFFFFF" d="M217.298,171.188c0.709,0.375,1.556,1.182,1.556,2.856v6.146c0,0.178-0.138,0.315-0.315,0.315h-0.65
			c-0.177,0-0.315-0.138-0.315-0.315v-6.146c0-0.827-0.275-1.398-0.847-1.714c-0.453-0.256-0.946-0.276-0.965-0.276h-0.178
			c-0.827,0-1.379,0.415-1.93,0.946c-0.138,0.118-0.237,0.354-0.237,0.531v6.658c0,0.178-0.138,0.315-0.315,0.315h-0.65
			c-0.177,0-0.315-0.138-0.315-0.315v-8.963c0-0.177,0.138-0.314,0.315-0.314h0.65c0.177,0,0.315,0.118,0.315,0.296
			c0,0.156,0,0.295,0,0.295c0.571-0.414,1.261-0.729,2.167-0.729h0.178C215.839,170.774,216.568,170.793,217.298,171.188z"/>
		<path fill="#FFFFFF" d="M226.635,171.483c0.531,0.492,0.768,1.182,0.768,2.167v6.539c0,0.178-0.138,0.315-0.315,0.315h-0.65
			c-0.177,0-0.315-0.138-0.315-0.315v-0.453c-0.217,0.178-0.453,0.315-0.669,0.434c-0.926,0.453-1.852,0.474-1.891,0.474h-0.315
			c-1.418,0-2.561-1.163-2.561-2.562v-0.196c0-1.301,0.669-2.147,1.99-2.541l2.915-0.828c0.059-0.039,0.532-0.177,0.532-0.61v-0.256
			c0-1.104-0.275-1.597-1.91-1.597c-1.478,0-1.852,0.395-1.911,1.281c-0.019,0.177-0.158,0.315-0.334,0.315h-0.65
			c-0.177,0-0.315-0.139-0.295-0.315c0.039-0.827,0.295-1.419,0.748-1.852c0.532-0.474,1.3-0.709,2.443-0.709
			C225.334,170.774,226.103,171.01,226.635,171.483z M226.122,176.802v-1.122c-0.079,0.019-0.158,0.059-0.217,0.059l-2.876,0.847
			c-0.886,0.256-1.063,0.709-1.063,1.301v0.196c0,0.69,0.571,1.28,1.28,1.28h0.315c0,0,0.689-0.02,1.359-0.354
			C225.729,178.574,226.122,177.865,226.122,176.802z"/>
		<path fill="#FFFFFF" d="M236.582,172.192h-0.414l-0.315,0.078c0.276,0.473,0.414,1.044,0.414,1.715c0,1.97-1.3,3.19-3.388,3.19
			c-0.473,0-0.906-0.059-1.3-0.177c-0.335,0.079-0.454,0.256-0.513,0.394c-0.099,0.178-0.118,0.354-0.118,0.354
			c0,0.276,0.098,0.473,0.275,0.631c0.157,0.098,0.335,0.138,0.355,0.157h0.019l3.29,0.649c0.374,0.079,0.946,0.277,1.339,0.769
			c0.335,0.414,0.493,0.966,0.493,1.715c0,0.787-0.335,1.438-0.985,1.891c-0.67,0.453-1.596,0.669-2.856,0.669
			s-2.206-0.216-2.856-0.669c-0.65-0.453-0.985-1.104-0.985-1.891c0-0.867,0.315-1.518,0.946-1.99
			c0.137-0.099,0.295-0.197,0.493-0.275c-0.434-0.315-0.808-0.848-0.808-1.655c0-0.079,0.02-0.492,0.236-0.945
			c0.119-0.197,0.257-0.395,0.415-0.551c-0.532-0.553-0.828-1.32-0.828-2.266c0-1.025,0.335-1.872,0.986-2.443
			c0.59-0.492,1.418-0.768,2.403-0.768c0.749,0,1.398,0.157,1.93,0.452l0.867-0.236c0.177-0.038,0.453-0.078,0.63-0.078h0.275
			c0.177,0,0.335,0.138,0.335,0.314v0.631C236.917,172.035,236.759,172.192,236.582,172.192z M234.592,180.427l-1.871-0.375
			c-2.226,0.414-2.403,0.945-2.403,1.616c0,0.354,0.138,0.63,0.433,0.827c0.296,0.196,0.906,0.452,2.128,0.452
			s1.832-0.256,2.127-0.452c0.296-0.197,0.434-0.474,0.434-0.827C235.439,180.741,235.163,180.563,234.592,180.427z
			 M234.986,173.985c0-1.281-0.709-1.932-2.108-1.932c-1.399,0-2.108,0.65-2.108,1.932c0,0.649,0.178,1.122,0.552,1.457
			c0.354,0.296,0.886,0.453,1.556,0.453s1.202-0.157,1.556-0.453C234.809,175.107,234.986,174.635,234.986,173.985z"/>
		<path fill="#FFFFFF" d="M245.13,176.211h-5.594c0.019,0.452,0.078,0.926,0.177,1.418c0.334,1.556,1.615,1.733,2.147,1.733
			c0.453,0,1.438-0.138,1.93-1.123c0.078-0.157,0.256-0.295,0.434-0.295h0.688c0.178,0,0.296,0.138,0.237,0.314
			c-0.453,1.478-1.694,2.385-3.289,2.385c-1.734,0-3.034-1.064-3.408-2.758c-0.453-2.147-0.02-4.275,0-4.354v-0.02
			c0.374-1.693,1.674-2.737,3.408-2.737c1.713,0,3.013,1.044,3.388,2.737v0.02c0.02,0.06,0.217,1.044,0.217,2.364
			C245.466,176.073,245.308,176.211,245.13,176.211z M239.576,174.931h4.57c-0.039-0.65-0.137-1.104-0.137-1.143
			c-0.355-1.557-1.616-1.734-2.147-1.734c-0.532,0-1.813,0.178-2.147,1.734C239.714,173.827,239.615,174.28,239.576,174.931z"/>
		<path fill="#FFFFFF" d="M250.567,170.774c0.926,0,1.615,0.314,2.187,0.748v-3.507c0-0.177,0.157-0.314,0.335-0.314h0.63
			c0.178,0,0.315,0.138,0.315,0.314v12.174c0,0.178-0.138,0.315-0.315,0.315h-0.63c-0.178,0-0.335-0.138-0.335-0.315v-0.295
			c-0.571,0.413-1.261,0.749-2.187,0.749c-1.733,0-3.033-1.064-3.388-2.758c-0.454-2.168-0.02-4.275,0-4.354
			C247.534,171.838,248.833,170.774,250.567,170.774z M248.44,173.788c0,0.02-0.395,1.93,0,3.841
			c0.315,1.556,1.595,1.733,2.127,1.733c0.827,0,1.398-0.413,1.97-0.965c0.118-0.118,0.216-0.374,0.216-0.552v-4.294
			c0-0.178-0.099-0.414-0.216-0.552c-0.572-0.531-1.143-0.946-1.97-0.946C250.035,172.054,248.755,172.231,248.44,173.788z"/>
		<path fill="#FFFFFF" d="M267.329,173.531c0.02,0.079,0.453,2.187,0,4.354c-0.354,1.693-1.654,2.758-3.388,2.758
			c-0.927,0-1.616-0.336-2.187-0.749v0.295c0,0.178-0.139,0.315-0.316,0.315h-0.648c-0.178,0-0.315-0.138-0.315-0.315v-12.174
			c0-0.177,0.138-0.314,0.315-0.314h0.648c0.178,0,0.316,0.138,0.316,0.314v3.507c0.57-0.434,1.26-0.748,2.187-0.748
			C265.675,170.774,266.975,171.838,267.329,173.531z M266.068,177.629c0.395-1.911,0.021-3.821,0-3.841
			c-0.315-1.557-1.595-1.734-2.127-1.734c-0.827,0-1.399,0.415-1.95,0.946c-0.138,0.138-0.236,0.374-0.236,0.552v4.294
			c0,0.178,0.099,0.434,0.236,0.552c0.551,0.552,1.123,0.965,1.95,0.965C264.474,179.362,265.753,179.185,266.068,177.629z"/>
		<path fill="#FFFFFF" d="M274.991,170.912h0.65c0.178,0,0.314,0.138,0.314,0.314v0.749c0,0.178-0.039,0.453-0.098,0.631
			l-2.62,7.466c-0.078,0.256-1.241,3.644-3.939,3.644h-0.257c-0.138,0-0.256-0.138-0.256-0.315v-0.649
			c0-0.178,0.118-0.315,0.256-0.315c0.139,0,0.257,0,0.257,0c1.162,0,1.931-1.123,2.364-1.931l-2.777-7.898
			c-0.061-0.178-0.1-0.453-0.1-0.631v-0.749c0-0.177,0.139-0.314,0.316-0.314h0.648c0.178,0,0.315,0.138,0.315,0.314v0.867
			l2.305,6.579l2.306-6.579v-0.867C274.677,171.05,274.814,170.912,274.991,170.912z"/>
		<path fill="#FFFFFF" d="M287.046,173.886c0.335,0.218,0.611,0.493,0.826,0.789c0.415,0.571,0.631,1.261,0.631,2.067
			c0,1.144-0.275,2.049-0.827,2.72c-0.63,0.768-1.614,1.182-2.896,1.182c-1.3,0-2.226-0.315-2.816-0.926
			c-0.571-0.571-0.828-1.379-0.828-2.542c0-0.177,0.139-0.314,0.316-0.314h0.648c0.178,0,0.316,0.138,0.316,0.314
			c0,1.438,0.373,2.187,2.363,2.187c0.906,0,1.517-0.236,1.911-0.709c0.354-0.434,0.532-1.083,0.532-1.931
			c0-0.926-0.414-1.576-1.242-1.97c-0.63-0.296-1.279-0.334-1.339-0.334c-0.157,0-0.315-0.139-0.315-0.315v-0.63
			c0-0.178,0.158-0.336,0.336-0.336c2.245,0,2.422-0.984,2.422-2.167c0-1.379-0.354-2.107-2.246-2.107
			c-0.865,0-1.457,0.157-1.792,0.473c-0.296,0.315-0.433,0.808-0.433,1.576c0,0.177-0.158,0.314-0.336,0.314h-0.63
			c-0.178,0-0.315-0.138-0.315-0.314c0-1.123,0.256-1.911,0.809-2.463c0.57-0.591,1.457-0.867,2.697-0.867
			c1.262,0,2.147,0.276,2.719,0.887c0.552,0.572,0.809,1.379,0.809,2.502c0,0.709-0.061,1.557-0.572,2.246
			C287.598,173.474,287.341,173.709,287.046,173.886z"/>
		<path fill="#FFFFFF" d="M294.196,170.774c0.177,0,0.315,0.138,0.315,0.314v0.631c0,0.178-0.139,0.315-0.315,0.334
			c-0.887,0.079-1.478,0.454-2.01,0.946c-0.139,0.118-0.236,0.354-0.236,0.531v6.658c0,0.178-0.138,0.315-0.315,0.315h-0.649
			c-0.178,0-0.315-0.138-0.315-0.315v-8.981c0-0.178,0.138-0.315,0.315-0.315h0.649c0.178,0,0.315,0.138,0.315,0.315v0.334
			C292.502,171.168,293.251,170.833,294.196,170.774z"/>
		<path fill="#FFFFFF" d="M299.062,170.774c0.926,0,1.615,0.314,2.187,0.748v-3.507c0-0.177,0.157-0.314,0.335-0.314h0.631
			c0.178,0,0.314,0.138,0.314,0.314v12.174c0,0.178-0.137,0.315-0.314,0.315h-0.631c-0.178,0-0.335-0.138-0.335-0.315v-0.295
			c-0.571,0.413-1.261,0.749-2.187,0.749c-1.733,0-3.033-1.064-3.388-2.758c-0.454-2.168-0.021-4.275,0-4.354
			C296.028,171.838,297.328,170.774,299.062,170.774z M296.935,173.788c0,0.02-0.395,1.93,0,3.841
			c0.314,1.556,1.596,1.733,2.127,1.733c0.827,0,1.398-0.413,1.971-0.965c0.117-0.118,0.216-0.374,0.216-0.552v-4.294
			c0-0.178-0.099-0.414-0.216-0.552c-0.572-0.531-1.144-0.946-1.971-0.946C298.53,172.054,297.249,172.231,296.935,173.788z"/>
		<path fill="#FFFFFF" d="M312.437,180.644c-0.927,0-1.616-0.336-2.188-0.749v3.486c0,0.178-0.138,0.335-0.315,0.335h-0.649
			c-0.178,0-0.314-0.157-0.314-0.335v-12.154c0-0.177,0.137-0.314,0.314-0.314h0.649c0.178,0,0.315,0.138,0.315,0.296v0.314
			c0.571-0.434,1.261-0.748,2.188-0.748c1.732,0,3.033,1.063,3.387,2.757c0.454,2.148,0.021,4.255,0,4.354
			C315.47,179.579,314.169,180.644,312.437,180.644z M314.563,177.629c0.02-0.02,0.395-1.949,0-3.841
			c-0.315-1.557-1.596-1.734-2.127-1.734c-0.828,0-1.399,0.415-1.951,0.946c-0.137,0.138-0.236,0.374-0.236,0.552v4.294
			c0,0.178,0.1,0.434,0.236,0.552c0.552,0.552,1.123,0.965,1.951,0.965C312.968,179.362,314.248,179.185,314.563,177.629z"/>
		<path fill="#FFFFFF" d="M323.486,171.483c0.531,0.492,0.769,1.182,0.769,2.167v6.539c0,0.178-0.139,0.315-0.315,0.315h-0.65
			c-0.177,0-0.315-0.138-0.315-0.315v-0.453c-0.217,0.178-0.453,0.315-0.67,0.434c-0.926,0.453-1.852,0.474-1.891,0.474h-0.314
			c-1.419,0-2.562-1.163-2.562-2.562v-0.196c0-1.301,0.67-2.147,1.989-2.541l2.916-0.828c0.059-0.039,0.531-0.177,0.531-0.61v-0.256
			c0-1.104-0.275-1.597-1.91-1.597c-1.478,0-1.852,0.395-1.911,1.281c-0.019,0.177-0.157,0.315-0.335,0.315h-0.65
			c-0.177,0-0.314-0.139-0.295-0.315c0.039-0.827,0.295-1.419,0.748-1.852c0.532-0.474,1.301-0.709,2.443-0.709
			C322.187,170.774,322.954,171.01,323.486,171.483z M322.974,176.802v-1.122c-0.078,0.019-0.157,0.059-0.217,0.059l-2.875,0.847
			c-0.887,0.256-1.064,0.709-1.064,1.301v0.196c0,0.69,0.572,1.28,1.281,1.28h0.314c0,0,0.689-0.02,1.359-0.354
			C322.58,178.574,322.974,177.865,322.974,176.802z"/>
		<path fill="#FFFFFF" d="M330.163,170.774c0.178,0,0.316,0.138,0.316,0.314v0.631c0,0.178-0.139,0.315-0.316,0.334
			c-0.887,0.079-1.477,0.454-2.009,0.946c-0.138,0.118-0.237,0.354-0.237,0.531v6.658c0,0.178-0.137,0.315-0.314,0.315h-0.65
			c-0.177,0-0.314-0.138-0.314-0.315v-8.981c0-0.178,0.138-0.315,0.314-0.315h0.65c0.178,0,0.314,0.138,0.314,0.315v0.334
			C328.47,171.168,329.218,170.833,330.163,170.774z"/>
		<path fill="#FFFFFF" d="M336.112,172.192h-2.246v5.239c0,0.492,0.178,0.985,0.492,1.359c0.178,0.197,0.553,0.571,1.104,0.571h0.65
			c0.177,0,0.314,0.138,0.314,0.315v0.63c0,0.178-0.138,0.336-0.314,0.336h-0.65c-0.788,0-1.536-0.375-2.088-1.044
			c-0.492-0.592-0.788-1.38-0.788-2.168v-5.239h-1.28c-0.178,0-0.315-0.157-0.315-0.335v-0.631c0-0.177,0.138-0.314,0.315-0.314
			h1.28v-2.246c0-0.178,0.138-0.314,0.315-0.314h0.65c0.177,0,0.314,0.137,0.314,0.314v2.246h2.246c0.177,0,0.314,0.138,0.314,0.314
			v0.631C336.427,172.035,336.289,172.192,336.112,172.192z"/>
		<path fill="#FFFFFF" d="M340.052,171.227v8.963c0,0.178-0.139,0.315-0.314,0.315h-0.65c-0.178,0-0.316-0.138-0.316-0.315v-7.997
			h-1.279c-0.178,0-0.316-0.157-0.316-0.335v-0.631c0-0.177,0.139-0.314,0.316-0.314h2.246
			C339.913,170.912,340.052,171.05,340.052,171.227z M340.052,168.666v0.631c0,0.177-0.139,0.335-0.314,0.335h-0.65
			c-0.178,0-0.316-0.158-0.316-0.335v-0.631c0-0.178,0.139-0.314,0.316-0.314h0.65C339.913,168.352,340.052,168.488,340.052,168.666
			z"/>
		<path fill="#FFFFFF" d="M348.975,176.211h-5.595c0.021,0.452,0.079,0.926,0.178,1.418c0.335,1.556,1.615,1.733,2.147,1.733
			c0.452,0,1.438-0.138,1.931-1.123c0.078-0.157,0.256-0.295,0.434-0.295h0.689c0.177,0,0.295,0.138,0.236,0.314
			c-0.453,1.478-1.695,2.385-3.29,2.385c-1.733,0-3.034-1.064-3.409-2.758c-0.452-2.147-0.019-4.275,0-4.354v-0.02
			c0.375-1.693,1.676-2.737,3.409-2.737c1.714,0,3.014,1.044,3.388,2.737v0.02c0.02,0.06,0.217,1.044,0.217,2.364
			C349.31,176.073,349.152,176.211,348.975,176.211z M343.42,174.931h4.569c-0.039-0.65-0.137-1.104-0.137-1.143
			c-0.354-1.557-1.615-1.734-2.147-1.734s-1.813,0.178-2.147,1.734C343.558,173.827,343.459,174.28,343.42,174.931z"/>
		<path fill="#FFFFFF" d="M355.554,175.502c1.004,0.394,1.557,1.201,1.557,2.245c0,1.222-0.532,1.892-0.966,2.246
			c-0.552,0.414-1.3,0.65-2.226,0.65s-1.675-0.236-2.227-0.65c-0.413-0.315-0.886-0.906-0.965-1.911
			c-0.02-0.177,0.139-0.335,0.314-0.335h0.631c0.178,0,0.314,0.158,0.335,0.335c0.06,0.394,0.217,0.69,0.474,0.906
			c0.314,0.236,0.807,0.374,1.438,0.374c0.63,0,1.123-0.138,1.438-0.374c0.315-0.256,0.473-0.67,0.473-1.241
			c0-0.315-0.079-0.788-0.748-1.063c-0.079-0.039-0.808-0.296-1.379-0.512c-0.828-0.296-1.34-0.474-1.438-0.513
			c-0.887-0.354-1.419-1.103-1.419-2.009c0-1.301,0.512-2.876,3.013-2.876h0.061c2.285,0,2.915,1.319,2.994,2.561
			c0.02,0.177-0.139,0.315-0.316,0.315h-0.63c-0.177,0-0.315-0.139-0.335-0.315c-0.078-0.926-0.57-1.281-1.713-1.281h-0.061
			c-1.26,0-1.732,0.434-1.732,1.597c0,0.473,0.335,0.709,0.611,0.827c0.098,0.02,0.807,0.295,1.398,0.492
			C354.963,175.265,355.455,175.462,355.554,175.502z"/>
	</g>
	<g>
		<path fill="#FFFFFF" d="M265.478,261.948h3.388c0.039,0,0.966,0,1.892,0.473c0.906,0.453,1.97,1.399,1.97,3.368
			c0,0.887-0.257,1.636-0.729,2.266c-0.394,0.473-0.906,0.867-1.557,1.143c-1.063,0.453-2.107,0.453-2.146,0.453h-1.852v4.786
			c0,0.178-0.138,0.315-0.315,0.315h-0.649c-0.178,0-0.315-0.138-0.315-0.315v-12.173
			C265.162,262.086,265.3,261.948,265.478,261.948z M271.446,265.789c0-1.083-0.414-1.813-1.262-2.225
			c-0.65-0.315-1.299-0.336-1.319-0.336h-2.423v5.142h1.852c0.02,0,0.867-0.02,1.674-0.374
			C270.954,267.582,271.446,266.854,271.446,265.789z"/>
		<path fill="#FFFFFF" d="M280.861,270.458h-5.595c0.02,0.453,0.079,0.926,0.178,1.418c0.335,1.557,1.615,1.733,2.147,1.733
			c0.452,0,1.438-0.138,1.931-1.123c0.078-0.156,0.256-0.295,0.434-0.295h0.688c0.177,0,0.296,0.139,0.237,0.315
			c-0.453,1.478-1.695,2.384-3.29,2.384c-1.733,0-3.034-1.064-3.407-2.758c-0.454-2.147-0.021-4.274,0-4.354v-0.021
			c0.373-1.693,1.674-2.737,3.407-2.737c1.714,0,3.013,1.044,3.388,2.737v0.021c0.02,0.059,0.217,1.044,0.217,2.363
			C281.196,270.32,281.038,270.458,280.861,270.458z M275.306,269.178h4.57c-0.039-0.65-0.137-1.104-0.137-1.142
			c-0.355-1.557-1.616-1.734-2.147-1.734c-0.532,0-1.813,0.178-2.147,1.734C275.444,268.074,275.346,268.527,275.306,269.178z"/>
		<path fill="#FFFFFF" d="M289.706,272.133c-0.355,1.693-1.654,2.758-3.389,2.758c-1.733,0-3.034-1.064-3.408-2.758
			c-0.453-2.147-0.02-4.274,0-4.354v-0.021c0.374-1.693,1.675-2.737,3.408-2.737c1.714,0,3.014,1.044,3.389,2.737v0.021
			C289.726,267.858,290.159,269.985,289.706,272.133z M288.465,268.036c-0.355-1.557-1.616-1.734-2.147-1.734
			s-1.813,0.178-2.146,1.734c-0.021,0.058-0.395,1.969,0,3.84c0.334,1.557,1.615,1.733,2.146,1.733s1.813-0.177,2.147-1.733
			C288.858,270.005,288.465,268.114,288.465,268.036z"/>
		<path fill="#FFFFFF" d="M295.418,274.891c-0.927,0-1.616-0.335-2.187-0.749v3.487c0,0.178-0.139,0.334-0.316,0.334h-0.648
			c-0.178,0-0.316-0.156-0.316-0.334v-12.154c0-0.178,0.139-0.315,0.316-0.315h0.648c0.178,0,0.316,0.138,0.316,0.296v0.315
			c0.57-0.434,1.26-0.749,2.187-0.749c1.733,0,3.033,1.063,3.388,2.758c0.453,2.147,0.02,4.255,0,4.354
			C298.451,273.826,297.151,274.891,295.418,274.891z M297.545,271.876c0.021-0.02,0.395-1.949,0-3.84
			c-0.315-1.557-1.595-1.734-2.127-1.734c-0.827,0-1.399,0.414-1.95,0.945c-0.138,0.139-0.236,0.374-0.236,0.552v4.294
			c0,0.178,0.099,0.434,0.236,0.552c0.551,0.552,1.123,0.965,1.95,0.965C295.95,273.609,297.229,273.433,297.545,271.876z"/>
		<path fill="#FFFFFF" d="M302.272,272.33c0,0.531,0.394,1.142,0.926,1.142h0.354c0.177,0,0.315,0.138,0.315,0.315v0.649
			c0,0.178-0.139,0.315-0.315,0.315h-0.354c-1.32,0-2.207-1.261-2.207-2.422v-10.066c0-0.178,0.139-0.315,0.316-0.315h0.648
			c0.178,0,0.316,0.138,0.316,0.315V272.33z"/>
		<path fill="#FFFFFF" d="M311.885,270.458h-5.595c0.02,0.453,0.079,0.926,0.178,1.418c0.335,1.557,1.615,1.733,2.147,1.733
			c0.453,0,1.438-0.138,1.931-1.123c0.078-0.156,0.256-0.295,0.434-0.295h0.688c0.178,0,0.296,0.139,0.237,0.315
			c-0.453,1.478-1.695,2.384-3.29,2.384c-1.733,0-3.034-1.064-3.407-2.758c-0.454-2.147-0.021-4.274,0-4.354v-0.021
			c0.373-1.693,1.674-2.737,3.407-2.737c1.714,0,3.014,1.044,3.388,2.737v0.021c0.02,0.059,0.217,1.044,0.217,2.363
			C312.22,270.32,312.063,270.458,311.885,270.458z M306.33,269.178h4.569c-0.039-0.65-0.137-1.104-0.137-1.142
			c-0.355-1.557-1.616-1.734-2.147-1.734c-0.532,0-1.813,0.178-2.147,1.734C306.468,268.074,306.369,268.527,306.33,269.178z"/>
		<path fill="#FFFFFF" d="M318.128,262.264c0-0.178,0.139-0.315,0.316-0.315h0.648c0.178,0,0.315,0.138,0.315,0.315v7.505
			c0,1.183,0.198,2.107,0.591,2.738c0.454,0.729,1.202,1.103,2.286,1.103c1.083,0,1.851-0.374,2.305-1.103
			c0.374-0.631,0.571-1.556,0.571-2.738v-7.505c0-0.178,0.157-0.315,0.335-0.315h0.63c0.178,0,0.315,0.138,0.315,0.315v7.505
			c0,4.216-2.246,5.122-4.156,5.122c-1.892,0-4.157-0.906-4.157-5.122V262.264z"/>
		<path fill="#FFFFFF" d="M333.216,269.749c1.006,0.394,1.557,1.202,1.557,2.246c0,1.221-0.531,1.891-0.965,2.245
			c-0.553,0.414-1.3,0.65-2.227,0.65c-0.926,0-1.674-0.236-2.225-0.65c-0.414-0.315-0.887-0.905-0.967-1.91
			c-0.019-0.178,0.139-0.335,0.316-0.335h0.63c0.177,0,0.315,0.157,0.335,0.335c0.059,0.394,0.217,0.689,0.473,0.905
			c0.315,0.236,0.807,0.374,1.438,0.374s1.123-0.138,1.438-0.374c0.315-0.256,0.473-0.67,0.473-1.24
			c0-0.315-0.078-0.788-0.749-1.064c-0.078-0.039-0.807-0.295-1.379-0.512c-0.827-0.295-1.339-0.473-1.438-0.512
			c-0.887-0.354-1.418-1.104-1.418-2.01c0-1.3,0.512-2.876,3.014-2.876h0.059c2.285,0,2.916,1.32,2.994,2.561
			c0.02,0.177-0.137,0.315-0.314,0.315h-0.631c-0.177,0-0.314-0.139-0.334-0.315c-0.08-0.926-0.572-1.28-1.715-1.28h-0.059
			c-1.26,0-1.734,0.434-1.734,1.596c0,0.473,0.336,0.709,0.611,0.827c0.099,0.02,0.809,0.295,1.398,0.492
			C332.625,269.513,333.118,269.709,333.216,269.749z"/>
		<path fill="#FFFFFF" d="M338.673,265.475v8.962c0,0.178-0.139,0.315-0.315,0.315h-0.649c-0.178,0-0.316-0.138-0.316-0.315v-7.997
			h-1.28c-0.177,0-0.315-0.157-0.315-0.335v-0.63c0-0.178,0.139-0.315,0.315-0.315h2.246
			C338.534,265.159,338.673,265.297,338.673,265.475z M338.673,262.914v0.63c0,0.177-0.139,0.335-0.315,0.335h-0.649
			c-0.178,0-0.316-0.158-0.316-0.335v-0.63c0-0.178,0.139-0.315,0.316-0.315h0.649C338.534,262.599,338.673,262.736,338.673,262.914
			z"/>
		<path fill="#FFFFFF" d="M346.275,265.436c0.71,0.374,1.557,1.181,1.557,2.856v6.145c0,0.178-0.138,0.315-0.315,0.315h-0.65
			c-0.176,0-0.314-0.138-0.314-0.315v-6.145c0-0.828-0.276-1.399-0.848-1.715c-0.453-0.256-0.945-0.275-0.965-0.275h-0.178
			c-0.826,0-1.379,0.414-1.93,0.945c-0.139,0.118-0.236,0.355-0.236,0.532v6.657c0,0.178-0.139,0.315-0.315,0.315h-0.649
			c-0.178,0-0.315-0.138-0.315-0.315v-8.962c0-0.178,0.138-0.315,0.315-0.315h0.649c0.177,0,0.315,0.118,0.315,0.296
			c0,0.157,0,0.295,0,0.295c0.571-0.413,1.26-0.729,2.166-0.729h0.178C344.817,265.021,345.547,265.041,346.275,265.436z"/>
		<path fill="#FFFFFF" d="M356.991,266.439h-0.413l-0.315,0.079c0.276,0.473,0.414,1.044,0.414,1.714
			c0,1.97-1.301,3.191-3.389,3.191c-0.473,0-0.906-0.06-1.299-0.178c-0.336,0.079-0.454,0.257-0.514,0.395
			c-0.098,0.177-0.117,0.354-0.117,0.354c0,0.275,0.098,0.473,0.275,0.63c0.157,0.099,0.335,0.139,0.355,0.157h0.019l3.29,0.65
			c0.374,0.079,0.945,0.276,1.34,0.769c0.335,0.413,0.492,0.965,0.492,1.714c0,0.787-0.335,1.438-0.984,1.892
			c-0.67,0.452-1.596,0.668-2.857,0.668c-1.26,0-2.205-0.216-2.855-0.668c-0.65-0.454-0.985-1.104-0.985-1.892
			c0-0.867,0.315-1.518,0.946-1.99c0.137-0.099,0.295-0.196,0.492-0.275c-0.434-0.314-0.809-0.848-0.809-1.654
			c0-0.08,0.021-0.492,0.236-0.946c0.119-0.196,0.257-0.394,0.414-0.551c-0.531-0.552-0.828-1.32-0.828-2.266
			c0-1.024,0.336-1.872,0.986-2.443c0.59-0.492,1.418-0.768,2.402-0.768c0.75,0,1.398,0.157,1.931,0.453l0.867-0.237
			c0.177-0.038,0.453-0.078,0.63-0.078h0.275c0.178,0,0.336,0.138,0.336,0.315v0.63
			C357.327,266.282,357.169,266.439,356.991,266.439z M355.002,274.674l-1.871-0.374c-2.226,0.413-2.403,0.945-2.403,1.615
			c0,0.354,0.139,0.631,0.434,0.827c0.295,0.197,0.906,0.453,2.127,0.453c1.223,0,1.832-0.256,2.127-0.453
			c0.297-0.196,0.434-0.474,0.434-0.827C355.849,274.989,355.573,274.812,355.002,274.674z M355.396,268.232
			c0-1.28-0.71-1.931-2.108-1.931s-2.107,0.65-2.107,1.931c0,0.649,0.178,1.122,0.553,1.458c0.354,0.295,0.886,0.452,1.555,0.452
			c0.67,0,1.202-0.157,1.557-0.452C355.219,269.354,355.396,268.882,355.396,268.232z"/>
		<path fill="#FFFFFF" d="M249.227,290.205c0.354,0.473,0.512,1.023,0.512,1.674c0,1.182-0.354,2.068-1.083,2.659
			c-0.65,0.532-1.557,0.808-2.758,0.808c-1.183,0-2.088-0.275-2.738-0.808s-1.024-1.319-1.083-2.344
			c-0.02-0.178,0.138-0.315,0.315-0.315h0.63c0.177,0,0.315,0.138,0.334,0.315c0.079,0.966,0.513,1.871,2.542,1.871
			c2.265,0,2.561-1.104,2.561-2.187c0-0.65-0.197-1.123-1.261-1.753l-3.388-1.911c-0.296-0.138-1.557-0.887-1.557-2.481
			c0-1.143,0.296-1.97,0.886-2.562c0.611-0.61,1.518-0.887,2.758-0.887c1.26,0,2.167,0.276,2.777,0.887
			c0.532,0.532,0.827,1.261,0.867,2.246c0.019,0.178-0.139,0.315-0.315,0.315h-0.63c-0.178,0-0.315-0.138-0.335-0.315
			c-0.06-1.162-0.551-1.852-2.364-1.852c-1.97,0-2.364,0.827-2.364,2.167c0,0.867,0.729,1.279,0.867,1.339l3.448,1.95
			C248.498,289.417,248.931,289.79,249.227,290.205z"/>
		<path fill="#FFFFFF" d="M258.327,292.589c-0.354,1.693-1.654,2.757-3.388,2.757c-1.734,0-3.034-1.063-3.408-2.757
			c-0.454-2.148-0.02-4.275,0-4.354v-0.02c0.374-1.694,1.674-2.737,3.408-2.737c1.713,0,3.013,1.043,3.388,2.737v0.02
			C258.347,288.313,258.78,290.44,258.327,292.589z M257.086,288.491c-0.355-1.557-1.616-1.734-2.147-1.734
			c-0.532,0-1.813,0.178-2.147,1.734c-0.02,0.059-0.394,1.97,0,3.841c0.334,1.556,1.615,1.733,2.147,1.733
			c0.531,0,1.812-0.178,2.147-1.733C257.479,290.461,257.086,288.569,257.086,288.491z"/>
		<path fill="#FFFFFF" d="M265.122,293.572c0.158-0.156,0.414-0.412,0.512-0.807c0.06-0.158,0.197-0.315,0.375-0.315h0.63
			c0.178,0,0.335,0.157,0.296,0.335c-0.079,0.67-0.434,1.28-1.004,1.772c-0.592,0.493-1.399,0.788-2.168,0.788
			c-1.732,0-3.033-1.063-3.388-2.757c-0.474-2.148-0.02-4.275,0-4.374c0.354-1.694,1.655-2.737,3.388-2.737
			c0.769,0,1.576,0.295,2.168,0.787c0.57,0.473,0.925,1.104,1.004,1.773c0.039,0.177-0.118,0.314-0.296,0.314h-0.63
			c-0.178,0-0.315-0.138-0.375-0.314c-0.098-0.375-0.354-0.65-0.512-0.788c-0.374-0.315-0.866-0.493-1.359-0.493
			c-0.531,0-1.812,0.178-2.146,1.734c0,0.02-0.395,1.949,0,3.82c0.335,1.576,1.615,1.754,2.146,1.754
			C264.256,294.065,264.748,293.868,265.122,293.572z"/>
		<path fill="#FFFFFF" d="M270.835,285.93v8.963c0,0.178-0.139,0.315-0.315,0.315h-0.65c-0.178,0-0.315-0.138-0.315-0.315v-7.997
			h-1.28c-0.177,0-0.315-0.158-0.315-0.335v-0.631c0-0.178,0.139-0.315,0.315-0.315h2.246
			C270.696,285.614,270.835,285.752,270.835,285.93z M270.835,283.369V284c0,0.177-0.139,0.335-0.315,0.335h-0.65
			c-0.178,0-0.315-0.158-0.315-0.335v-0.631c0-0.178,0.138-0.315,0.315-0.315h0.65C270.696,283.054,270.835,283.191,270.835,283.369
			z"/>
		<path fill="#FFFFFF" d="M278.694,286.186c0.531,0.493,0.768,1.183,0.768,2.167v6.54c0,0.178-0.138,0.315-0.314,0.315h-0.65
			c-0.178,0-0.316-0.138-0.316-0.315v-0.453c-0.216,0.178-0.452,0.315-0.669,0.434c-0.925,0.453-1.852,0.473-1.892,0.473h-0.314
			c-1.418,0-2.561-1.162-2.561-2.561v-0.196c0-1.301,0.67-2.148,1.989-2.542l2.915-0.827c0.059-0.04,0.531-0.178,0.531-0.611v-0.256
			c0-1.103-0.274-1.596-1.91-1.596c-1.477,0-1.852,0.395-1.91,1.281c-0.02,0.177-0.158,0.314-0.335,0.314h-0.649
			c-0.178,0-0.316-0.138-0.296-0.314c0.039-0.827,0.296-1.419,0.748-1.853c0.532-0.473,1.3-0.708,2.442-0.708
			C277.394,285.478,278.162,285.713,278.694,286.186z M278.181,291.505v-1.123c-0.078,0.02-0.156,0.059-0.216,0.059l-2.876,0.848
			c-0.887,0.256-1.063,0.709-1.063,1.301v0.196c0,0.689,0.571,1.28,1.28,1.28h0.314c0,0,0.689-0.02,1.359-0.354
			C277.788,293.277,278.181,292.568,278.181,291.505z"/>
		<path fill="#FFFFFF" d="M283.066,292.785c0,0.531,0.394,1.143,0.926,1.143h0.354c0.178,0,0.314,0.138,0.314,0.315v0.649
			c0,0.178-0.137,0.315-0.314,0.315h-0.354c-1.319,0-2.206-1.261-2.206-2.423v-10.066c0-0.178,0.137-0.315,0.314-0.315h0.65
			c0.178,0,0.315,0.138,0.315,0.315V292.785z"/>
		<path fill="#FFFFFF" d="M296.638,295.208c-0.177,0-0.374-0.138-0.434-0.296l-4.373-11.228h-0.197v11.208
			c0,0.178-0.137,0.315-0.314,0.315h-0.65c-0.178,0-0.314-0.138-0.314-0.315v-12.174c0-0.178,0.137-0.315,0.314-0.315h1.714
			c0.178,0,0.374,0.138,0.453,0.296l4.354,11.229h0.196v-11.209c0-0.178,0.157-0.315,0.335-0.315h0.631
			c0.176,0,0.314,0.138,0.314,0.315v12.174c0,0.178-0.139,0.315-0.314,0.315H296.638z"/>
		<path fill="#FFFFFF" d="M307.747,290.913h-5.594c0.02,0.453,0.078,0.927,0.178,1.419c0.334,1.556,1.615,1.733,2.146,1.733
			c0.453,0,1.438-0.138,1.931-1.123c0.079-0.157,0.257-0.295,0.434-0.295h0.688c0.178,0,0.297,0.138,0.237,0.314
			c-0.452,1.478-1.694,2.384-3.29,2.384c-1.732,0-3.033-1.063-3.407-2.757c-0.454-2.148-0.021-4.275,0-4.354v-0.02
			c0.374-1.694,1.675-2.737,3.407-2.737c1.714,0,3.014,1.043,3.389,2.737v0.02c0.02,0.06,0.217,1.044,0.217,2.364
			C308.083,290.776,307.925,290.913,307.747,290.913z M302.192,289.634h4.57c-0.039-0.65-0.138-1.104-0.138-1.143
			c-0.354-1.557-1.616-1.734-2.147-1.734s-1.813,0.178-2.146,1.734C302.331,288.529,302.231,288.983,302.192,289.634z"/>
		<path fill="#FFFFFF" d="M314.188,286.896h-2.245v5.239c0,0.492,0.177,0.985,0.491,1.359c0.178,0.197,0.553,0.571,1.104,0.571h0.65
			c0.178,0,0.315,0.138,0.315,0.315v0.63c0,0.178-0.138,0.335-0.315,0.335h-0.65c-0.787,0-1.535-0.374-2.088-1.044
			c-0.492-0.591-0.787-1.379-0.787-2.167v-5.239h-1.281c-0.177,0-0.314-0.158-0.314-0.335v-0.631c0-0.178,0.138-0.315,0.314-0.315
			h1.281v-2.245c0-0.178,0.137-0.315,0.314-0.315h0.65c0.177,0,0.315,0.138,0.315,0.315v2.245h2.245
			c0.178,0,0.315,0.138,0.315,0.315v0.631C314.504,286.737,314.366,286.896,314.188,286.896z"/>
		<path fill="#FFFFFF" d="M324.688,295.208h-1.754c-0.178,0-0.354-0.138-0.394-0.315l-1.36-6.54l-1.359,6.54
			c-0.039,0.178-0.217,0.315-0.393,0.315h-1.754c-0.157,0-0.334-0.138-0.374-0.315l-1.595-7.682c-0.04-0.178-0.06-0.474-0.06-0.65
			v-0.631c0-0.178,0.138-0.315,0.315-0.315h0.65c0.176,0,0.314,0.138,0.314,0.315v0.827l1.477,7.171h0.315l1.399-6.737
			c0.039-0.157,0.217-0.295,0.394-0.295h1.358c0.178,0,0.336,0.138,0.375,0.295l1.418,6.737h0.297l1.477-7.171v-0.827
			c0-0.178,0.138-0.315,0.315-0.315h0.649c0.178,0,0.315,0.138,0.315,0.315v0.631c0,0.177-0.02,0.473-0.06,0.65l-1.595,7.682
			C325.022,295.07,324.864,295.208,324.688,295.208z"/>
		<path fill="#FFFFFF" d="M335.226,292.589c-0.354,1.693-1.654,2.757-3.388,2.757s-3.034-1.063-3.407-2.757
			c-0.454-2.148-0.021-4.275,0-4.354v-0.02c0.373-1.694,1.674-2.737,3.407-2.737c1.714,0,3.014,1.043,3.388,2.737v0.02
			C335.245,288.313,335.679,290.44,335.226,292.589z M333.985,288.491c-0.355-1.557-1.616-1.734-2.147-1.734
			c-0.532,0-1.813,0.178-2.147,1.734c-0.02,0.059-0.395,1.97,0,3.841c0.335,1.556,1.615,1.733,2.147,1.733
			c0.531,0,1.812-0.178,2.147-1.733C334.379,290.461,333.985,288.569,333.985,288.491z"/>
		<path fill="#FFFFFF" d="M340.997,285.478c0.178,0,0.315,0.137,0.315,0.314v0.631c0,0.178-0.138,0.314-0.315,0.334
			c-0.886,0.079-1.477,0.454-2.01,0.945c-0.137,0.119-0.236,0.355-0.236,0.532v6.658c0,0.178-0.137,0.315-0.314,0.315h-0.65
			c-0.178,0-0.314-0.138-0.314-0.315v-8.982c0-0.177,0.137-0.314,0.314-0.314h0.65c0.178,0,0.314,0.138,0.314,0.314v0.335
			C339.304,285.871,340.052,285.536,340.997,285.478z"/>
		<path fill="#FFFFFF" d="M349.31,293.475c0.078,0.138,0.158,0.413,0.158,0.591v0.827c0,0.178-0.139,0.315-0.315,0.315h-0.65
			c-0.177,0-0.315-0.138-0.315-0.315v-0.787l-2.541-4.02l-1.615,1.853v2.954c0,0.178-0.138,0.315-0.315,0.315h-0.649
			c-0.178,0-0.315-0.138-0.315-0.315v-12.174c0-0.178,0.138-0.315,0.315-0.315h0.649c0.178,0,0.315,0.138,0.315,0.315v7.27
			l3.625-4.137c0.099-0.139,0.354-0.237,0.512-0.237h0.67c0,0,0.315,0,0.315,0.315v0.06c0,0.039-0.04,0.138-0.099,0.196
			l-2.541,2.896L349.31,293.475z"/>
		<path fill="#FFFFFF" d="M355.554,290.205c1.004,0.394,1.557,1.201,1.557,2.245c0,1.222-0.532,1.891-0.966,2.245
			c-0.552,0.415-1.3,0.65-2.226,0.65s-1.675-0.235-2.227-0.65c-0.413-0.314-0.886-0.905-0.965-1.91
			c-0.02-0.178,0.139-0.335,0.314-0.335h0.631c0.178,0,0.314,0.157,0.335,0.335c0.06,0.394,0.217,0.689,0.474,0.906
			c0.314,0.236,0.807,0.374,1.438,0.374c0.63,0,1.123-0.138,1.438-0.374c0.315-0.257,0.473-0.67,0.473-1.241
			c0-0.315-0.079-0.788-0.748-1.063c-0.079-0.04-0.808-0.296-1.379-0.513c-0.828-0.295-1.34-0.473-1.438-0.512
			c-0.887-0.354-1.419-1.104-1.419-2.01c0-1.3,0.512-2.875,3.013-2.875h0.061c2.285,0,2.915,1.319,2.994,2.561
			c0.02,0.177-0.139,0.314-0.316,0.314h-0.63c-0.177,0-0.315-0.138-0.335-0.314c-0.078-0.926-0.57-1.281-1.713-1.281h-0.061
			c-1.26,0-1.732,0.434-1.732,1.596c0,0.473,0.335,0.71,0.611,0.827c0.098,0.021,0.807,0.296,1.398,0.493
			C354.963,289.968,355.455,290.165,355.554,290.205z"/>
	</g>
</g>
<g>
	<g>
		<g>
			<g>
				<path fill="#FFFFFF" d="M374.921,15.723c0.313,0,0.558,0.244,0.558,0.558v19.832h2.857c0.313,0,0.558,0.244,0.558,0.558v1.15
					c0,0.314-0.244,0.558-0.558,0.558h-7.946c-0.314,0-0.558-0.244-0.558-0.558v-1.15c0-0.314,0.243-0.558,0.558-0.558h2.823V20.394
					l-0.14,0.104c-0.767,0.488-1.638,0.802-2.684,0.871c-0.314,0.035-0.558-0.244-0.558-0.557v-1.115
					c0-0.314,0.243-0.558,0.558-0.593c1.115-0.14,1.882-0.662,2.37-1.568c0.209-0.454,0.349-0.906,0.418-1.255
					c0.035-0.314,0.313-0.558,0.628-0.558H374.921z"/>
			</g>
			<g>
				<path fill="#FFFFFF" d="M372.271,97.903h10.178c0.313,0,0.593,0.244,0.593,0.557v1.15c0,0.313-0.279,0.558-0.593,0.558h-11.886
					c-0.313,0-0.558-0.244-0.558-0.558v-1.708c0-2.196,1.359-4.706,3.765-6.832l5.089-4.636c0.487-0.453,1.673-1.917,1.673-3.242
					c0-1.359-0.244-2.23-0.767-2.788c-0.593-0.558-1.638-0.836-3.207-0.836c-1.533,0-2.579,0.278-3.171,0.836
					c-0.523,0.558-0.768,1.429-0.768,2.788c0,0.313-0.279,0.558-0.593,0.558h-1.115c-0.313,0-0.558-0.245-0.558-0.558
					c0-1.986,0.453-3.381,1.43-4.356c1.011-1.045,2.579-1.534,4.774-1.534c2.231,0,3.8,0.488,4.811,1.534
					c0.976,0.976,1.429,2.37,1.429,4.356c0,2.544-2.126,4.671-2.37,4.88l-0.035,0.035l-5.089,4.636
					C373.422,94.417,372.271,96.404,372.271,97.903z"/>
			</g>
			<g>
				<path fill="#FFFFFF" d="M380.462,166.356c0.593,0.383,1.08,0.871,1.465,1.394c0.731,1.012,1.114,2.231,1.114,3.66
					c0,2.021-0.487,3.625-1.464,4.81c-1.115,1.359-2.857,2.092-5.124,2.092c-2.3,0-3.938-0.558-4.983-1.639
					c-1.011-1.011-1.464-2.439-1.464-4.496c0-0.313,0.244-0.558,0.558-0.558h1.15c0.313,0,0.558,0.244,0.558,0.558
					c0,2.545,0.662,3.869,4.182,3.869c1.604,0,2.685-0.418,3.382-1.255c0.627-0.767,0.94-1.917,0.94-3.416
					c0-1.638-0.731-2.788-2.195-3.484c-1.115-0.523-2.266-0.594-2.37-0.594c-0.278,0-0.558-0.243-0.558-0.558v-1.114
					c0-0.313,0.279-0.594,0.593-0.594c3.973,0,4.286-1.742,4.286-3.834c0-2.439-0.627-3.729-3.973-3.729
					c-1.534,0-2.579,0.278-3.172,0.836c-0.522,0.558-0.767,1.43-0.767,2.788c0,0.314-0.279,0.559-0.593,0.559h-1.115
					c-0.313,0-0.558-0.244-0.558-0.559c0-1.986,0.453-3.38,1.429-4.356c1.011-1.045,2.579-1.533,4.775-1.533
					c2.23,0,3.799,0.488,4.81,1.568c0.977,1.011,1.429,2.44,1.429,4.426c0,1.255-0.104,2.754-1.011,3.974
					C381.438,165.625,380.985,166.043,380.462,166.356z"/>
			</g>
			<g>
				<path fill="#FFFFFF" d="M381.752,285.416h2.857c0.314,0,0.559,0.244,0.559,0.558v1.15c0,0.313-0.244,0.558-0.559,0.558h-2.857
					v4.531c0,0.313-0.244,0.558-0.558,0.558h-1.115c-0.313,0-0.593-0.244-0.593-0.558v-4.531h-9.62
					c-0.313,0-0.558-0.244-0.558-0.558c0-0.279,0-0.523,0-0.523v-0.94c0-0.314,0.14-0.767,0.313-1.046
					c1.569-2.439,4.671-7.703,6.448-13.941c0.069-0.314,0.383-0.559,0.697-0.559h1.22c0.313,0,0.488,0.244,0.419,0.559
					c-1.29,4.774-3.312,8.992-4.811,11.711c-0.662,1.22-1.29,2.23-1.777,3.032h7.668v-7.947c0-0.313,0.279-0.558,0.593-0.558h1.115
					c0.313,0,0.558,0.244,0.558,0.558V285.416z"/>
			</g>
		</g>
	</g>
</g>
</svg>
