<?xml version="1.0" encoding="utf-8"?>
<!-- Generator: Adobe Illustrator 15.0.2, SVG Export Plug-In . SVG Version: 6.00 Build 0)  -->
<!DOCTYPE svg PUBLIC "-//W3C//DTD SVG 1.1//EN" "http://www.w3.org/Graphics/SVG/1.1/DTD/svg11.dtd">
<svg version="1.1" id="Ebene_1" xmlns="http://www.w3.org/2000/svg" xmlns:xlink="http://www.w3.org/1999/xlink" x="0px" y="0px"
	 width="385.51px" height="402.52px" viewBox="0 0 385.51 402.52" enable-background="new 0 0 385.51 402.52" xml:space="preserve">
<g>
	<defs>
		<rect id="SVGID_1_" x="22.725" y="255.95" width="40" height="40"/>
	</defs>
	<clipPath id="SVGID_2_">
		<use xlink:href="#SVGID_1_"  overflow="visible"/>
	</clipPath>
	<linearGradient id="SVGID_3_" gradientUnits="userSpaceOnUse" x1="30.1909" y1="266.707" x2="55.2628" y2="291.7789">
		<stop  offset="0.05" style="stop-color:#FFAF00"/>
		<stop  offset="0.95" style="stop-color:#B87E00"/>
	</linearGradient>
	<path clip-path="url(#SVGID_2_)" fill="url(#SVGID_3_)" d="M52.737,283.409l1.178,9.318c0.035,0.27-0.018,0.412-0.053,0.451
		c-0.07,0.08-0.277,0.014-0.469-0.074l-8.58-3.992c-0.568-0.264-1.309-0.408-2.086-0.408c-0.775,0-1.516,0.145-2.084,0.408
		l-8.582,3.992c-0.303,0.143-0.422,0.131-0.467,0.074c-0.037-0.039-0.088-0.18-0.051-0.453l1.178-9.322
		c0.15-1.293-0.418-3.031-1.299-3.961l-6.473-6.859c-0.217-0.234-0.229-0.381-0.225-0.404c0.012-0.027,0.105-0.137,0.418-0.197
		l9.307-1.775c1.264-0.229,2.748-1.299,3.381-2.438l4.904-8.82l4.891,8.822c0.635,1.137,2.119,2.207,3.375,2.434l9.299,1.777
		c0.316,0.061,0.418,0.172,0.424,0.197c0.008,0.021-0.008,0.168-0.229,0.402l-6.459,6.859
		C53.139,280.386,52.571,282.13,52.737,283.409z"/>
</g>
<g id="layer1_1_">
	<linearGradient id="path2417_2_" gradientUnits="userSpaceOnUse" x1="87.5107" y1="270.1465" x2="116.237" y2="298.8727">
		<stop  offset="0.05" style="stop-color:#DC0004"/>
		<stop  offset="0.95" style="stop-color:#A30004"/>
	</linearGradient>
	<path id="path2417_1_" fill="url(#path2417_2_)" d="M100.074,309.032c-0.96-1.074-3.355-3.172-5.324-4.658
		c-5.834-4.406-6.628-5.043-8.997-7.225c-4.367-4.021-6.222-8.061-6.215-13.539c0.003-2.674,0.185-3.703,0.935-5.279
		c1.27-2.674,3.142-4.662,5.534-5.877c1.694-0.859,2.53-1.242,5.359-1.258c2.961-0.018,3.584,0.328,5.325,1.285
		c2.12,1.164,4.302,3.652,4.752,5.42l0.279,1.092l0.687-1.504c3.881-8.496,16.273-8.369,20.586,0.211
		c1.368,2.723,1.518,8.535,0.305,11.811c-1.582,4.27-4.555,7.527-11.426,12.516c-4.506,3.273-9.605,8.225-9.96,8.92
		C101.501,311.753,101.894,311.071,100.074,309.032z"/>
	<g id="g2221_1_" transform="translate(129.28571,-64.285714)">
	</g>
</g>
<g>
	<defs>
		<rect id="SVGID_4_" x="62.567" y="213.138" width="40" height="40"/>
	</defs>
	<clipPath id="SVGID_5_">
		<use xlink:href="#SVGID_4_"  overflow="visible"/>
	</clipPath>
	<linearGradient id="SVGID_6_" gradientUnits="userSpaceOnUse" x1="66.8599" y1="222.7832" x2="92.9676" y2="248.8909">
		<stop  offset="0.05" style="stop-color:#95CC0D"/>
		<stop  offset="0.95" style="stop-color:#77A30A"/>
	</linearGradient>
	<path clip-path="url(#SVGID_5_)" fill="url(#SVGID_6_)" d="M66.387,242.069c-1.451-2.635-2.281-5.668-2.281-8.885
		c0-10.199,8.266-18.463,18.461-18.463c10.197,0,18.461,8.264,18.461,18.463c0,10.193-8.264,18.461-18.461,18.461
		c-3.867,0-7.453-1.197-10.422-3.227c-5.221,4.146-8.039,3.027-8.039,3.027C67.208,247.226,67.856,245.261,66.387,242.069z"/>
</g>
<g id="indieauth_logo_2_">
	<linearGradient id="SVGID_7_" gradientUnits="userSpaceOnUse" x1="157.293" y1="281.1836" x2="189.0672" y2="312.9578">
		<stop  offset="0.05" style="stop-color:#FF0000"/>
		<stop  offset="0.95" style="stop-color:#E00000"/>
	</linearGradient>
	<rect x="150.139" y="288.337" fill="url(#SVGID_7_)" width="46.081" height="17.467"/>
	<linearGradient id="SVGID_8_" gradientUnits="userSpaceOnUse" x1="152.1592" y1="311.1006" x2="194.2023" y2="353.1437">
		<stop  offset="0.05" style="stop-color:#FF0000"/>
		<stop  offset="0.95" style="stop-color:#E00000"/>
	</linearGradient>
	<rect x="150.139" y="313.118" fill="url(#SVGID_8_)" width="46.081" height="38.006"/>
	<linearGradient id="SVGID_9_" gradientUnits="userSpaceOnUse" x1="181.873" y1="308.8379" x2="230.8775" y2="357.8423">
		<stop  offset="0.05" style="stop-color:#9FCC00"/>
		<stop  offset="0.95" style="stop-color:#7FA300"/>
	</linearGradient>
	<path fill="url(#SVGID_9_)" d="M217.034,307.034l-10.639-22.719l-31.282,66.809h26.973h35.508L217.034,307.034z M209.677,317.593
		v18.24h-6.643v-18.248h-0.012c-1.822-1.121-3.037-3.133-3.037-5.428c0-3.52,2.852-6.371,6.369-6.371
		c3.52,0,6.371,2.852,6.371,6.371C212.726,314.458,211.505,316.474,209.677,317.593z"/>
</g>
<g id="mf_logo_2_">
	
		<linearGradient id="SVGID_10_" gradientUnits="userSpaceOnUse" x1="-3.1353" y1="340.4365" x2="-2.9576" y2="340.6142" gradientTransform="matrix(320 0 0 320 1277.75 -108711.75)">
		<stop  offset="0.05" style="stop-color:#56A231"/>
		<stop  offset="0.95" style="stop-color:#3B792D"/>
	</linearGradient>
	<path fill="url(#SVGID_10_)" stroke="#FFFFFF" stroke-width="3.5534" d="M285.021,227.761h35.532
		c5.888,0,10.659,4.773,10.659,10.66v35.533c0,5.889-4.771,10.662-10.659,10.662h-35.532c-5.889,0-10.662-4.773-10.662-10.662
		v-35.533C274.358,232.534,279.132,227.761,285.021,227.761z"/>
	
		<linearGradient id="SVGID_11_" gradientUnits="userSpaceOnUse" x1="-2.7832" y1="341.4854" x2="-2.605" y2="341.6635" gradientTransform="matrix(245 0 0 245 975.625 -83444.25)">
		<stop  offset="0.05" style="stop-color:#72BD2D"/>
		<stop  offset="0.95" style="stop-color:#56A231"/>
	</linearGradient>
	<path fill="url(#SVGID_11_)" stroke="#FFFFFF" stroke-width="3.5534" d="M301.896,219.767h27.539c4.415,0,7.998,3.58,7.998,7.994
		v27.541c0,4.414-3.583,7.994-7.998,7.994h-27.539c-4.415,0-7.996-3.58-7.996-7.994v-27.541
		C293.9,223.347,297.481,219.767,301.896,219.767z"/>
	
		<linearGradient id="SVGID_12_" gradientUnits="userSpaceOnUse" x1="-1.853" y1="343.6807" x2="-1.6757" y2="343.858" gradientTransform="matrix(160 0 0 160 608.125 -54771.875)">
		<stop  offset="0.05" style="stop-color:#99CC33"/>
		<stop  offset="0.95" style="stop-color:#72BD2D"/>
	</linearGradient>
	<path fill="url(#SVGID_12_)" stroke="#FFFFFF" stroke-width="3.5534" d="M315.223,217.103h21.321c1.96,0,3.552,1.592,3.552,3.553
		v21.32c0,1.961-1.592,3.553-3.552,3.553h-21.321c-1.962,0-3.554-1.592-3.554-3.553v-21.32
		C311.669,218.694,313.261,217.103,315.223,217.103z"/>
</g>
<g id="webmention_logo_2_">
	<g>
		<linearGradient id="SVGID_13_" gradientUnits="userSpaceOnUse" x1="354.2666" y1="125.0869" x2="309.3301" y2="125.0869">
			<stop  offset="0.05" style="stop-color:#FF5C00"/>
			<stop  offset="0.95" style="stop-color:#FFB100"/>
		</linearGradient>
		<polygon fill="url(#SVGID_13_)" points="309.33,138.922 354.267,117.877 340.062,111.252 309.33,125.567 		"/>
		<linearGradient id="SVGID_14_" gradientUnits="userSpaceOnUse" x1="354.2666" y1="99.7158" x2="309.3301" y2="99.7158">
			<stop  offset="0.05" style="stop-color:#FF5C00"/>
			<stop  offset="0.95" style="stop-color:#FFB100"/>
		</linearGradient>
		<polygon fill="url(#SVGID_14_)" points="309.33,78.707 309.33,96.831 309.33,120.725 338.955,106.908 354.267,99.752 		"/>
	</g>
	<g>
		<linearGradient id="SVGID_17_" gradientUnits="userSpaceOnUse" x1="259.96" y1="92.3223" x2="304.8984" y2="92.3223">
			<stop  offset="0.05" style="stop-color:#FF5C00"/>
			<stop  offset="0.95" style="stop-color:#FFB100"/>
		</linearGradient>
		<polygon fill="url(#SVGID_17_)" points="304.898,78.488 259.96,99.532 274.167,106.156 304.898,91.841 		"/>
		<linearGradient id="SVGID_18_" gradientUnits="userSpaceOnUse" x1="259.96" y1="117.6934" x2="304.8984" y2="117.6934">
			<stop  offset="0.05" style="stop-color:#FF5C00"/>
			<stop  offset="0.95" style="stop-color:#FFB100"/>
		</linearGradient>
		<polygon fill="url(#SVGID_18_)" points="304.898,138.703 304.898,120.577 304.898,96.684 275.273,110.5 259.96,117.657 		"/>
	</g>
</g>
<g id="micropub_logo_2_">
	<polygon fill="#354E9E" points="121.299,150.377 90.081,83.712 80.254,104.786 101.491,150.377 	"/>
	<linearGradient id="SVGID_19_" gradientUnits="userSpaceOnUse" x1="38.6953" y1="157.0986" x2="87.6376" y2="108.1563">
		<stop  offset="0.05" style="stop-color:#72BD2D"/>
		<stop  offset="0.99" style="stop-color:#354E9E"/>
	</linearGradient>
	<polygon fill="url(#SVGID_19_)" points="31.974,150.377 58.861,150.377 94.305,150.377 73.81,106.427 63.194,83.712 	"/>
</g>
<g id="websub_logo_2_">
	<g>
		
			<linearGradient id="SVGID_20_" gradientUnits="userSpaceOnUse" x1="1260.3779" y1="33.2837" x2="1197.9923" y2="95.6693" gradientTransform="matrix(-1 0 0 1 1421.5039 0)">
			<stop  offset="0.0509" style="stop-color:#D397C2"/>
			<stop  offset="0.95" style="stop-color:#973A93"/>
		</linearGradient>
		<path fill="url(#SVGID_20_)" d="M217.173,46.753l-7.912,16.984l15.79,8.493l11.931-25.478H217.173z M205.979,55.347l4.008-8.594
			h-62.331l31.219,66.665L189.493,90.7l5.848-12.54l-15.108-22.832L205.979,55.347z M195.937,92.341l9.826,21.077l13.896-29.676
			l-15.767-8.481L195.937,92.341z"/>
	</g>
</g>
<g id="Label__x3C_Gruppe_x3E__2_">
	<text transform="matrix(1 0 0 1 172.395 374.6348)" fill="#FFFFFF" font-family="'MyriadPro-Regular'" font-size="18">AUTH</text>
	<text transform="matrix(1 0 0 1 291.3311 308.6348)" fill="#FFFFFF" font-family="'MyriadPro-Regular'" font-size="18">MF2</text>
	<text transform="matrix(1 0 0 1 253.8145 163.6348)" fill="#FFFFFF" font-family="'MyriadPro-Regular'" font-size="18">WEBMENTION</text>
	<text transform="matrix(1 0 0 1 35.9282 175.6348)" fill="#FFFFFF" font-family="'MyriadPro-Regular'" font-size="18">MICROPUB</text>
	<text transform="matrix(1 0 0 1 160.0093 35.6348)" fill="#FFFFFF" font-family="'MyriadPro-Regular'" font-size="18">WEBSUB</text>
	<g>
		<g>
			<polygon fill="#FFFFFF" points="187.53,165.879 204.231,201.544 209.488,190.269 198.128,165.879 			"/>
			<polygon fill="#FFFFFF" points="235.317,165.879 220.934,165.879 201.972,165.879 212.937,189.392 218.616,201.544 			"/>
			<g>
				<g>
					<rect id="SVGID_16_" x="150.567" y="165.879" fill="#FFFFFF" width="33.289" height="9.327"/>
				</g>
			</g>
			<g>
				<g>
					<rect id="SVGID_15_" x="150.567" y="178.597" fill="#FFFFFF" width="33.289" height="20.291"/>
				</g>
			</g>
		</g>
		<text transform="matrix(1 0 0 1 155.2964 225.6348)"><tspan x="0" y="0" fill="#FFFFFF" font-family="'MyriadPro-Regular'" font-size="21">building</tspan><tspan x="12.925" y="20" fill="#FFFFFF" font-family="'MyriadPro-Regular'" font-size="21">block</tspan></text>
	</g>
</g>
<g id="BG__x3C_Gruppe_x3E__2_">
	<polygon fill="none" stroke="#EEEEEE" stroke-width="2" stroke-miterlimit="10" points="38.945,332.937 0.567,266.464 
		38.945,199.993 115.701,199.993 154.077,266.464 115.701,332.937 	"/>
	<polygon fill="none" stroke="#EEEEEE" stroke-width="2" stroke-miterlimit="10" points="154.104,399.937 115.726,333.464 
		154.104,266.993 230.86,266.993 269.237,333.464 230.86,399.937 	"/>
	<polygon fill="none" stroke="#EEEEEE" stroke-width="2" stroke-miterlimit="10" points="269.104,333.081 230.727,266.608 
		269.104,200.138 345.86,200.138 384.237,266.608 345.86,333.081 	"/>
	<polygon fill="none" stroke="#EEEEEE" stroke-width="2" stroke-miterlimit="10" points="269.104,200.081 230.727,133.607 
		269.104,67.134 345.86,67.134 384.237,133.607 345.86,200.081 	"/>
	<polygon fill="none" stroke="#EEEEEE" stroke-width="2" stroke-miterlimit="10" points="38.945,200.081 0.567,133.607 
		38.945,67.134 115.701,67.134 154.077,133.607 115.701,200.081 	"/>
	<polygon fill="none" stroke="#EEEEEE" stroke-width="2" stroke-miterlimit="10" points="154.104,134.08 115.726,67.605 
		154.104,1.134 230.86,1.134 269.237,67.605 230.86,134.08 	"/>
</g>
</svg>
