<?xml version="1.0" encoding="utf-8"?>
<!-- Generator: Adobe Illustrator 15.0.2, SVG Export Plug-In . SVG Version: 6.00 Build 0)  -->
<!DOCTYPE svg PUBLIC "-//W3C//DTD SVG 1.1//EN" "http://www.w3.org/Graphics/SVG/1.1/DTD/svg11.dtd">
<svg version="1.1" id="Layer_1" xmlns="http://www.w3.org/2000/svg" xmlns:xlink="http://www.w3.org/1999/xlink" x="0px" y="0px"
	 width="140.764px" height="66.579px" viewBox="0 0 140.764 66.579" enable-background="new 0 0 140.764 66.579"
	 xml:space="preserve">
<g>
	<g>
		<polygon fill="#FF5C00" points="47.344,9.206 64.427,45.682 69.803,34.148 58.183,9.206 		"/>
		<polygon fill="#FF5C00" points="96.219,9.206 81.509,9.206 62.115,9.206 73.328,33.252 79.14,45.682 		"/>
	</g>
	<g>
		<g>
			<g>
				<rect id="SVGID_1_" x="9.538" y="9.206" fill="#FF0000" width="34.049" height="9.538"/>
			</g>
		</g>
		<g>
			<g>
				<rect id="SVGID_3_" x="9.538" y="22.212" fill="#FF0000" width="34.049" height="20.752"/>
			</g>
		</g>
	</g>
	<path fill="#FFB100" d="M130.965,27.964c-0.896,9.365-8.76,16.706-18.353,16.706c-10.174,0-18.441-8.265-18.441-18.44
		c0-10.175,8.236-18.47,18.441-18.47c9.566,0,17.429,7.283,18.353,16.62h-18.353c-0.982,0-1.793,0.808-1.793,1.792
		c0,0.982,0.811,1.792,1.793,1.792H130.965L130.965,27.964z"/>
</g>
<rect x="0" y="-0.333" fill="none" width="140.764" height="66.912"/>
</svg>
