<?xml version="1.0" encoding="utf-8"?>
<!-- Generator: Adobe Illustrator 15.1.0, SVG Export Plug-In . SVG Version: 6.00 Build 0)  -->
<!DOCTYPE svg PUBLIC "-//W3C//DTD SVG 1.1//EN" "http://www.w3.org/Graphics/SVG/1.1/DTD/svg11.dtd">
<svg version="1.1" id="Layer_1" xmlns="http://www.w3.org/2000/svg" xmlns:xlink="http://www.w3.org/1999/xlink" x="0px" y="0px"
	 width="250.527px" height="118.421px" viewBox="0 0 250.527 118.421" enable-background="new 0 0 250.527 118.421"
	 xml:space="preserve">
<g>
	<g>
		<g>
			<polygon fill="#FF5C00" points="84.262,16.644 114.667,81.564 124.235,61.037 103.554,16.644 			"/>
			<polygon fill="#FF5C00" points="171.251,16.644 145.069,16.644 110.552,16.644 130.509,59.443 140.852,81.564 			"/>
		</g>
		<g>
			<g>
				<g>
					<rect id="SVGID_1_" x="16.976" y="16.644" fill="#FF0000" width="60.6" height="16.975"/>
				</g>
			</g>
			<g>
				<g>
					<rect id="SVGID_3_" x="16.976" y="39.792" fill="#FF0000" width="60.6" height="36.936"/>
				</g>
			</g>
		</g>
		<path fill="#FFB100" d="M233.088,50.03c-1.594,16.667-15.589,29.733-32.665,29.733c-18.108,0-32.822-14.71-32.822-32.82
			c0-18.108,14.66-32.872,32.822-32.872c17.026,0,31.021,12.963,32.665,29.58h-32.665c-1.747,0-3.192,1.439-3.192,3.188
			c0,1.749,1.445,3.19,3.192,3.19H233.088z"/>
		<g>
			<path fill="#666666" d="M19.394,101.783h-2.213V89.332h2.213V101.783z"/>
			<path fill="#666666" d="M30.35,89.228l7.871,7.719v-7.615h2.213v12.5l-0.103,0.051l-7.871-7.662v7.563h-2.211V89.281
				L30.35,89.228z"/>
			<path fill="#666666" d="M49.848,101.783V89.332h4.373c4.733,0,6.172,3.602,6.172,6.227c0,2.672-1.388,6.225-6.172,6.225H49.848z
				 M54.221,99.826c3.446,0,3.96-3.189,3.96-4.268c0-1.082-0.514-4.273-3.96-4.273h-2.213v8.541H54.221z"/>
			<path fill="#666666" d="M71.969,101.783h-2.211V89.332h2.211V101.783z"/>
			<path fill="#666666" d="M84.676,96.583v3.191h6.172v1.953h-8.333V89.281h8.333v1.955h-6.172v3.395h4.835v1.953H84.676z"/>
			<path fill="#444444" d="M109.007,94.113l-3.446,7.719h-0.155l-5.709-12.551h2.418l3.343,7.922l3.395-8.127h0.155l3.446,8.127
				l3.345-7.922h2.418l-5.711,12.551h-0.153L109.007,94.113z"/>
			<path fill="#444444" d="M127.939,96.583v3.191h6.17v1.953h-8.332V89.281h8.332v1.955h-6.17v3.395h4.832v1.953H127.939z"/>
			<path fill="#444444" d="M151.755,95.505c1.032,0.412,1.545,1.643,1.545,2.623c0,1.49-1.028,3.6-4.373,3.6h-4.68V89.281h4.68
				c3.345,0,4.373,2.111,4.373,3.652C153.3,93.96,152.787,95.091,151.755,95.505z M149.133,94.63
				c1.644-0.051,1.903-1.182,1.903-1.697c0-0.41-0.306-1.697-2.007-1.697h-2.672v3.395H149.133z M149.079,99.826
				c1.697,0,2.011-1.232,2.011-1.645c0-0.566-0.313-1.49-1.903-1.545h-2.779v3.189H149.079z"/>
			<path fill="#666666" d="M172.18,92.675c-0.67-0.824-2.008-1.543-3.292-1.543c-3.448,0-3.96,3.295-3.96,4.373
				s0.512,4.373,3.96,4.373c1.338,0,2.622-0.771,3.444-1.545l1.288,1.598c-1.238,1.232-2.676,1.951-4.683,1.951
				c-4.782,0-6.174-3.754-6.174-6.432c0-2.621,1.441-6.375,6.174-6.375c2.16,0,3.552,0.871,4.732,2.16L172.18,92.675z"/>
			<path fill="#666666" d="M191.573,101.783h-2.416l-1.338-3.189h-4.067l-1.334,3.189h-2.367l5.712-12.555h0.152L191.573,101.783z
				 M184.523,96.789h2.577l-1.288-3.133L184.523,96.789z"/>
			<path fill="#666666" d="M205.052,101.935l-3.601-7.355l-2.366,7.203h-2.313l4.37-12.607h0.156l3.857,8.49l3.857-8.49h0.152
				l4.427,12.607h-2.316l-2.366-7.203l-3.602,7.355H205.052z"/>
			<path fill="#666666" d="M223.623,101.783h-2.21V89.332h4.68c3.341,0,4.373,2.365,4.373,3.965c0,2.416-2.164,4.01-4.167,4.01
				h-2.779v4.477H223.623z M226.245,95.298c1.647-0.053,2.057-1.387,2.057-2.002c0-0.674-0.359-2.012-2.106-2.012h-2.626v4.068
				h2.676V95.298z"/>
		</g>
	</g>
	<rect x="0" y="-0.333" fill="none" width="250.527" height="119.088"/>
</g>
</svg>
