<?xml version="1.0" encoding="utf-8"?>
<!-- Generator: Adobe Illustrator 15.1.0, SVG Export Plug-In . SVG Version: 6.00 Build 0)  -->
<!DOCTYPE svg PUBLIC "-//W3C//DTD SVG 1.1//EN" "http://www.w3.org/Graphics/SVG/1.1/DTD/svg11.dtd">
<svg version="1.1" xmlns="http://www.w3.org/2000/svg" xmlns:xlink="http://www.w3.org/1999/xlink" x="0px" y="0px" width="211px"
	 height="298px" viewBox="0 0 211 298" enable-background="new 0 0 211 298" xml:space="preserve">
<g id="Papier">
	<rect fill="#FFFFFF" width="210" height="297"/>
	<g>
		<path fill="#ED1C24" d="M42.104,91V48.719H20V40h53.84v8.719H51.783V91H42.104z"/>
	</g>
	<rect x="80" y="40" fill="#C8C8C8" width="110" height="6"/>
	<rect x="80" y="55" fill="#C8C8C8" width="110" height="6"/>
	<rect x="80" y="70" fill="#C8C8C8" width="110" height="6"/>
	<rect x="80" y="85" fill="#C8C8C8" width="110" height="6"/>
	<rect x="20" y="115" fill="#C8C8C8" width="170" height="6"/>
	<rect x="20" y="130" fill="#C8C8C8" width="170" height="6"/>
	<rect x="20" y="145" fill="#C8C8C8" width="170" height="6"/>
	<rect x="20" y="160" fill="#C8C8C8" width="170" height="6"/>
	<rect x="20" y="100" fill="#C8C8C8" width="170" height="6"/>
	<rect x="65" y="201" fill="#C8C8C8" width="125" height="6"/>
	<rect x="65" y="216" fill="#C8C8C8" width="125" height="6"/>
	<rect x="65" y="231" fill="#C8C8C8" width="125" height="6"/>
	<g>
		<path fill="#FBA73B" d="M20,236.972V201h7.322v29.861H58v6.111H20z"/>
	</g>
</g>
<g id="Ebene_2">
	<rect fill="#ED1C24" width="210" height="20"/>
</g>
<g id="Ebene_3">
	<rect x="20" y="180" width="53" height="6"/>
</g>
</svg>
