<?xml version="1.0" encoding="utf-8"?>
<!-- Generator: Adobe Illustrator 15.1.0, SVG Export Plug-In . SVG Version: 6.00 Build 0)  -->
<!DOCTYPE svg PUBLIC "-//W3C//DTD SVG 1.1//EN" "http://www.w3.org/Graphics/SVG/1.1/DTD/svg11.dtd">
<svg version="1.1" id="Ebene_1" xmlns="http://www.w3.org/2000/svg" xmlns:xlink="http://www.w3.org/1999/xlink" x="0px" y="0px"
	 width="211px" height="298px" viewBox="0 0 211 298" enable-background="new 0 0 211 298" xml:space="preserve">
<rect y="0" fill="#FFFFFF" width="210" height="297"/>
<rect y="0" fill="#FBA73B" width="210" height="20"/>
<g>
	<path fill="#FBA73B" d="M20,91.117V40h10.406v42.434H74v8.685L20,91.117L20,91.117z"/>
</g>
<rect x="80" y="40" fill="#C8C8C8" width="110" height="6"/>
<rect x="80" y="55" fill="#C8C8C8" width="110" height="6"/>
<rect x="80" y="70" fill="#C8C8C8" width="110" height="6"/>
<rect x="80" y="85" fill="#C8C8C8" width="110" height="6"/>
<rect x="20" y="115" fill="#C8C8C8" width="170" height="6"/>
<rect x="20" y="130" fill="#C8C8C8" width="170" height="6"/>
<rect x="20" y="145" fill="#C8C8C8" width="170" height="6"/>
<rect x="20" y="160" fill="#C8C8C8" width="170" height="6"/>
<rect x="20" y="100" fill="#C8C8C8" width="170" height="6"/>
<rect x="85" y="180" fill="#ED1C24" width="85" height="6"/>
<rect x="85" y="195" fill="#ED1C24" width="85" height="6"/>
<rect x="85" y="210" fill="#ED1C24" width="85" height="6"/>
<g>
	<path fill="#ED1C24" d="M55.603,216.062v-29.845H40v-6.155h38.005v6.155H62.436v29.845H55.603z"/>
</g>
<rect x="20" y="230" fill="#C8C8C8" width="170" height="6"/>
<rect x="20" y="245" fill="#C8C8C8" width="170" height="6"/>
<rect x="20" y="260" fill="#C8C8C8" width="170" height="6"/>
<rect x="20" y="275" fill="#C8C8C8" width="170" height="6"/>
</svg>
