<?xml version="1.0" encoding="utf-8"?>
<!-- Generator: Adobe Illustrator 15.1.0, SVG Export Plug-In . SVG Version: 6.00 Build 0)  -->
<!DOCTYPE svg PUBLIC "-//W3C//DTD SVG 1.1//EN" "http://www.w3.org/Graphics/SVG/1.1/DTD/svg11.dtd">
<svg version="1.1" id="Ebene_1" xmlns="http://www.w3.org/2000/svg" xmlns:xlink="http://www.w3.org/1999/xlink" x="0px" y="0px"
	 width="283.671px" height="122.47px" viewBox="0 0 283.671 122.47" enable-background="new 0 0 283.671 122.47"
	 xml:space="preserve">
<path enable-background="new    " d="M161.816,110.49l-16.074-49.146h-0.267L129.67,110.49h-21.117L83.45,15.597h20.853
	l15.008,64.591h0.266l16.471-49.146h19.524l16.204,49.94h0.266l11.58-49.907l-15.084-0.033l31.269-29.062l19.402,29.1l-15.364-0.009
	l-21.313,79.419H161.816L161.816,110.49z"/>
<g>
	<path fill="#FBA73B" d="M234.643,33.18l49.028-20.24L278.329,0l-49.457,20.417C231.158,24.462,233.095,28.729,234.643,33.18z"/>
	<path fill="#FBA73B" d="M89.738,92.999c-2.013-4.179-3.646-8.572-4.901-13.123L40.366,98.234l2.447-18.067L0,122.47l60.185-0.221
		l-14.476-11.075L89.738,92.999z"/>
</g>
</svg>
